<?xml version="1.0" encoding="UTF-8"?>
<svg width="48" height="48" version="1.1" xmlns="http://www.w3.org/2000/svg" xmlns:xlink="http://www.w3.org/1999/xlink">
 <rect transform="scale(1,-1)" x="5" y="-43.967" width="38" height="38" rx="1.5" ry="1.5" color="#000000" fill="#f0f0f0" overflow="visible"/>
 <rect x="4.5" y="5.467" width="39" height="39" rx="2" ry="2" color="#000000" fill="none" opacity=".35" overflow="visible" stroke="#555761" stroke-linecap="round" stroke-linejoin="round"/>
 <path d="m15.472 18.065a8.5277 9.0426 0 0 1 8.5277-9.0426 8.5277 9.0426 0 0 1 8.5277 9.0426h-8.5277z" style="color:#000000;fill-rule:evenodd;fill:#d7d3ef;opacity:.35;paint-order:stroke fill markers;stroke-linejoin:round;stroke:#565862"/>
 <rect x="23.749" y="8.9801" width=".52375" height="2.9894" rx="0" ry="1.3006" style="color:#000000;fill-rule:evenodd;opacity:.68;paint-order:stroke fill markers"/>
 <rect transform="rotate(-75)" x="-11.117" y="18.874" width=".52375" height="2.9894" rx="0" ry="0" style="color:#000000;fill-rule:evenodd;opacity:.68;paint-order:stroke fill markers"/>
 <rect transform="rotate(-45)" x="4.7332" y="20.534" width=".52375" height="2.9894" rx="0" ry="0" style="color:#000000;fill-rule:evenodd;opacity:.68;paint-order:stroke fill markers"/>
 <rect transform="rotate(45)" x="28.812" y="-13.227" width=".52375" height="2.9894" rx="0" ry="0" style="color:#000000;fill-rule:evenodd;opacity:.68;paint-order:stroke fill markers"/>
 <rect transform="rotate(75)" x="23.063" y="-27.465" width=".52375" height="2.9894" rx="0" ry="0" style="color:#000000;fill-rule:evenodd;opacity:.68;paint-order:stroke fill markers"/>
 <rect transform="rotate(29.386)" x="29.109" y="-3.675" width=".50572" height="6.876" rx="0" ry="0" style="color:#000000;fill-rule:evenodd;fill:#f22a2a;paint-order:stroke fill markers"/>
 <path d="m22.734 17.647a1.2665 1.3339 0 0 1 1.2664-1.3339 1.2665 1.3339 0 0 1 1.2664 1.3339h-1.2664z" style="color:#000000;fill-rule:evenodd;paint-order:stroke fill markers"/>
 <path d="m15.472 18.065a8.5277 9.0426 0 0 1 8.5277-9.0426 8.5277 9.0426 0 0 1 8.5277 9.0426h-8.5277z" style="color:#000000;fill:none;paint-order:stroke fill markers;stroke-linejoin:round;stroke:#b5b6be"/>
 <path d="m20.528 14.505a4.0102 1.9749 0 0 1 4.5493-1.3421 4.0102 1.9749 0 0 1 3.2751 2.0541 4.0102 1.9749 0 0 1-3.7263 1.8582 4.0102 1.9749 0 0 1-4.2115-1.5871l3.934-0.38308z" style="color:#000000;fill:none;paint-order:stroke fill markers"/>
 <text x="14.7057" y="38.039379" style="fill:#565862;font-family:sans-serif;font-size:10.667px;font-variant-caps:normal;font-variant-east-asian:normal;font-variant-ligatures:normal;font-variant-numeric:normal;font-weight:bold;letter-spacing:0px;line-height:125%;opacity:.40017;stroke-width:1px;word-spacing:0px" xml:space="preserve"><tspan x="14.7057" y="38.039379" style="fill:#565862;font-family:sans-serif;font-size:10.667px;font-variant-caps:normal;font-variant-east-asian:normal;font-variant-ligatures:normal;font-variant-numeric:normal;font-weight:bold">WL</tspan></text>
</svg>
