<?xml version="1.0" encoding="UTF-8"?>
<!DOCTYPE svg PUBLIC "-//W3C//DTD SVG 1.1//EN" "http://www.w3.org/Graphics/SVG/1.1/DTD/svg11.dtd">
<svg width="215mm" height="180mm" viewBox="0 0 21500 18000" version="1.1" xmlns="http://www.w3.org/2000/svg" xmlns:xlink="http://www.w3.org/1999/xlink" stroke-width="28.222" stroke-linejoin="round" xml:space="preserve">
 <path fill="rgb(255,255,255)" stroke="none" d="M 10766,17982 L 0,17982 0,0 21532,0 21532,17982 10766,17982 Z"/>
 <path fill="none" stroke="rgb(179,179,179)" stroke-linejoin="round" d="M 10712,15638 L 1915,15638 1915,2795 19508,2795 19508,15638 10712,15638 Z"/>
 <path fill="none" stroke="rgb(179,179,179)" stroke-linejoin="round" d="M 1915,2794 L 1915,15637"/>
 <path fill="none" stroke="rgb(179,179,179)" stroke-linejoin="round" d="M 3869,2794 L 3869,15637"/>
 <path fill="none" stroke="rgb(179,179,179)" stroke-linejoin="round" d="M 5824,2794 L 5824,15637"/>
 <path fill="none" stroke="rgb(179,179,179)" stroke-linejoin="round" d="M 7779,2794 L 7779,15637"/>
 <path fill="none" stroke="rgb(179,179,179)" stroke-linejoin="round" d="M 9734,2794 L 9734,15637"/>
 <path fill="none" stroke="rgb(179,179,179)" stroke-linejoin="round" d="M 11688,2794 L 11688,15637"/>
 <path fill="none" stroke="rgb(179,179,179)" stroke-linejoin="round" d="M 13643,2794 L 13643,15637"/>
 <path fill="none" stroke="rgb(179,179,179)" stroke-linejoin="round" d="M 15598,2794 L 15598,15637"/>
 <path fill="none" stroke="rgb(179,179,179)" stroke-linejoin="round" d="M 17553,2794 L 17553,15637"/>
 <path fill="none" stroke="rgb(179,179,179)" stroke-linejoin="round" d="M 19508,2794 L 19508,15637"/>
 <path fill="none" stroke="rgb(179,179,179)" stroke-linejoin="round" d="M 19508,15637 L 1915,15637"/>
 <path fill="none" stroke="rgb(179,179,179)" stroke-linejoin="round" d="M 19508,14352 L 1915,14352"/>
 <path fill="none" stroke="rgb(179,179,179)" stroke-linejoin="round" d="M 19508,13068 L 1915,13068"/>
 <path fill="none" stroke="rgb(179,179,179)" stroke-linejoin="round" d="M 19508,11783 L 1915,11783"/>
 <path fill="none" stroke="rgb(179,179,179)" stroke-linejoin="round" d="M 19508,10499 L 1915,10499"/>
 <path fill="none" stroke="rgb(179,179,179)" stroke-linejoin="round" d="M 19508,9215 L 1915,9215"/>
 <path fill="none" stroke="rgb(179,179,179)" stroke-linejoin="round" d="M 19508,7931 L 1915,7931"/>
 <path fill="none" stroke="rgb(179,179,179)" stroke-linejoin="round" d="M 19508,6647 L 1915,6647"/>
 <path fill="none" stroke="rgb(179,179,179)" stroke-linejoin="round" d="M 19508,5362 L 1915,5362"/>
 <path fill="none" stroke="rgb(179,179,179)" stroke-linejoin="round" d="M 19508,4078 L 1915,4078"/>
 <path fill="none" stroke="rgb(179,179,179)" stroke-linejoin="round" d="M 19508,2794 L 1915,2794"/>
 <path fill="none" stroke="rgb(179,179,179)" stroke-linejoin="round" d="M 1915,15637 L 19508,15637"/>
 <path fill="none" stroke="rgb(179,179,179)" stroke-linejoin="round" d="M 1765,15637 L 1915,15637"/>
 <path fill="none" stroke="rgb(179,179,179)" stroke-linejoin="round" d="M 1765,15637 L 1915,15637"/>
 <path fill="none" stroke="rgb(179,179,179)" stroke-linejoin="round" d="M 1765,14352 L 1915,14352"/>
 <path fill="none" stroke="rgb(179,179,179)" stroke-linejoin="round" d="M 1765,14352 L 1915,14352"/>
 <path fill="none" stroke="rgb(179,179,179)" stroke-linejoin="round" d="M 1765,13068 L 1915,13068"/>
 <path fill="none" stroke="rgb(179,179,179)" stroke-linejoin="round" d="M 1765,13068 L 1915,13068"/>
 <path fill="none" stroke="rgb(179,179,179)" stroke-linejoin="round" d="M 1765,11783 L 1915,11783"/>
 <path fill="none" stroke="rgb(179,179,179)" stroke-linejoin="round" d="M 1765,11783 L 1915,11783"/>
 <path fill="none" stroke="rgb(179,179,179)" stroke-linejoin="round" d="M 1765,10499 L 1915,10499"/>
 <path fill="none" stroke="rgb(179,179,179)" stroke-linejoin="round" d="M 1765,10499 L 1915,10499"/>
 <path fill="none" stroke="rgb(179,179,179)" stroke-linejoin="round" d="M 1765,9215 L 1915,9215"/>
 <path fill="none" stroke="rgb(179,179,179)" stroke-linejoin="round" d="M 1765,9215 L 1915,9215"/>
 <path fill="none" stroke="rgb(179,179,179)" stroke-linejoin="round" d="M 1765,7931 L 1915,7931"/>
 <path fill="none" stroke="rgb(179,179,179)" stroke-linejoin="round" d="M 1765,7931 L 1915,7931"/>
 <path fill="none" stroke="rgb(179,179,179)" stroke-linejoin="round" d="M 1765,6647 L 1915,6647"/>
 <path fill="none" stroke="rgb(179,179,179)" stroke-linejoin="round" d="M 1765,6647 L 1915,6647"/>
 <path fill="none" stroke="rgb(179,179,179)" stroke-linejoin="round" d="M 1765,5362 L 1915,5362"/>
 <path fill="none" stroke="rgb(179,179,179)" stroke-linejoin="round" d="M 1765,5362 L 1915,5362"/>
 <path fill="none" stroke="rgb(179,179,179)" stroke-linejoin="round" d="M 1765,4078 L 1915,4078"/>
 <path fill="none" stroke="rgb(179,179,179)" stroke-linejoin="round" d="M 1765,4078 L 1915,4078"/>
 <path fill="none" stroke="rgb(179,179,179)" stroke-linejoin="round" d="M 1765,2794 L 1915,2794"/>
 <path fill="none" stroke="rgb(179,179,179)" stroke-linejoin="round" d="M 1765,2794 L 1915,2794"/>
 <path fill="none" stroke="rgb(179,179,179)" stroke-linejoin="round" d="M 1915,15637 L 1915,2794"/>
 <path fill="none" stroke="rgb(179,179,179)" stroke-linejoin="round" d="M 19658,15637 L 19508,15637"/>
 <path fill="none" stroke="rgb(179,179,179)" stroke-linejoin="round" d="M 19658,15637 L 19508,15637"/>
 <path fill="none" stroke="rgb(179,179,179)" stroke-linejoin="round" d="M 19658,13068 L 19508,13068"/>
 <path fill="none" stroke="rgb(179,179,179)" stroke-linejoin="round" d="M 19658,13068 L 19508,13068"/>
 <path fill="none" stroke="rgb(179,179,179)" stroke-linejoin="round" d="M 19658,10499 L 19508,10499"/>
 <path fill="none" stroke="rgb(179,179,179)" stroke-linejoin="round" d="M 19658,10499 L 19508,10499"/>
 <path fill="none" stroke="rgb(179,179,179)" stroke-linejoin="round" d="M 19658,7931 L 19508,7931"/>
 <path fill="none" stroke="rgb(179,179,179)" stroke-linejoin="round" d="M 19658,7931 L 19508,7931"/>
 <path fill="none" stroke="rgb(179,179,179)" stroke-linejoin="round" d="M 19658,5362 L 19508,5362"/>
 <path fill="none" stroke="rgb(179,179,179)" stroke-linejoin="round" d="M 19658,5362 L 19508,5362"/>
 <path fill="none" stroke="rgb(179,179,179)" stroke-linejoin="round" d="M 19658,2794 L 19508,2794"/>
 <path fill="none" stroke="rgb(179,179,179)" stroke-linejoin="round" d="M 19658,2794 L 19508,2794"/>
 <path fill="none" stroke="rgb(179,179,179)" stroke-linejoin="round" d="M 19508,15637 L 19508,2794"/>
 <path fill="none" stroke="rgb(255,66,14)" stroke-width="80" stroke-linejoin="round" d="M 2012,3999 L 2110,4012 2208,4024 2305,4037 2403,4050 2501,4063 2599,4076 2696,4089 2794,4102 2892,4115 2990,4128 3087,4141 3185,4154 3283,4167 3381,4180 3478,4193 3576,4206 3674,4219 3772,4232 3869,4245 3967,4257 4065,4270 4163,4283 4260,4296 4358,4309 4456,4322 4554,4335 4651,4348 4749,4361 4847,4374 4945,4387 5042,4400 5140,4413 5238,4426 5336,4439 5433,4452 5531,4465 5629,4478 5727,4491 5824,4503 5922,4516 6020,4529 6118,4542 6215,4555 6313,4568 6411,4581 6508,4594 6606,4607 6704,4620 6802,4633 6899,4646 6997,4659 7095,4672 7193,4685 7290,4698 7388,4711 7486,4724 7584,4737 7681,4749 7779,4762 7877,4775 7975,4788 8072,4801 8170,4814 8268,4827 8366,4840 8463,4853 8561,4866 8659,4879 8757,4892 8854,4905 8952,4918 9050,4931 9148,4944 9245,4957 9343,4970 9441,4983 9539,4995 9636,5008 9734,5021 9832,5034 9930,5047 10027,5060 10125,5073 10223,5086 10321,5099 10418,5112 10516,5125 10614,5138 10712,5151 10808,5164 10906,5177 11004,5190 11101,5203 11199,5216 11297,5228 11395,5241 11492,5254 11590,5267 11688,5280 11786,5293 11883,5306 11981,5319 12079,5332 12177,5345 12274,5358 12372,5371 12470,5384 12568,5397 12665,5410 12763,5423 12861,5436 12959,5449 13056,5462 13154,5474 13252,5487 13350,5500 13447,5513 13545,5526 13643,5539 13741,5552 13838,5565 13936,5578 14034,5591 14132,5604 14229,5617 14327,5630 14425,5643 14523,5656 14620,5669 14718,5682 14816,5695 14914,5708 15011,5720 15109,5733 15207,5746 15304,5759 15402,5772 15500,5785 15598,5798 15695,5811 15793,5824 15891,5837 15989,5850 16086,5863 16184,5876 16282,5889 16380,5902 16477,5915 16575,5928 16673,5941 16771,5953 16868,5966 16966,5979 17064,5992 17162,6005 17259,6018 17357,6031 17455,6044 17553,6057 17650,6070 17748,6083 17846,6096 17944,6109 18041,6122 18139,6135 18237,6148 18335,6161 18432,6174 18530,6187 18628,6199 18726,6212 18823,6225 18921,6238 19019,6251 19117,6264 19214,6277 19312,6290 19410,6303 19508,6316"/>
 <path fill="none" stroke="rgb(0,69,134)" stroke-width="80" stroke-linejoin="round" d="M 2012,4602 L 2110,4627 2208,4653 2305,4678 2403,4703 2501,4729 2599,4754 2696,4780 2794,4806 2892,4832 2990,4858 3087,4884 3185,4910 3283,4936 3381,4962 3478,4989 3576,5015 3674,5042 3772,5068 3869,5095 3967,5122 4065,5148 4163,5175 4260,5202 4358,5230 4456,5257 4554,5284 4651,5312 4749,5339 4847,5367 4945,5394 5042,5422 5140,5450 5238,5478 5336,5506 5433,5534 5531,5562 5629,5590 5727,5619 5824,5647 5922,5676 6020,5704 6118,5733 6215,5762 6313,5791 6411,5820 6508,5849 6606,5878 6704,5908 6802,5937 6899,5967 6997,5996 7095,6026 7193,6056 7290,6086 7388,6116 7486,6146 7584,6176 7681,6206 7779,6236 7877,6267 7975,6297 8072,6328 8170,6359 8268,6390 8366,6421 8463,6452 8561,6483 8659,6514 8757,6546 8854,6577 8952,6609 9050,6640 9148,6672 9245,6704 9343,6736 9441,6768 9539,6800 9636,6832 9734,6865 9832,6897 9930,6930 10027,6963 10125,6995 10223,7028 10321,7061 10418,7095 10516,7128 10614,7161 10712,7195 10808,7228 10906,7262 11004,7295 11101,7329 11199,7363 11297,7397 11395,7432 11492,7466 11590,7500 11688,7535 11786,7569 11883,7604 11981,7639 12079,7674 12177,7709 12274,7744 12372,7780 12470,7815 12568,7850 12665,7886 12763,7922 12861,7958 12959,7994 13056,8030 13154,8066 13252,8102 13350,8139 13447,8175 13545,8212 13643,8248 13741,8285 13838,8322 13936,8359 14034,8397 14132,8434 14229,8471 14327,8509 14425,8547 14523,8584 14620,8622 14718,8660 14816,8698 14914,8737 15011,8775 15109,8814 15207,8852 15304,8891 15402,8930 15500,8969 15598,9007 15695,9046 15793,9085 15891,9125 15989,9164 16086,9204 16184,9244 16282,9284 16380,9324 16477,9364 16575,9404 16673,9444 16771,9485 16868,9525 16966,9566 17064,9607 17162,9648 17259,9689 17357,9730 17455,9772 17553,9813 17650,9855 17748,9896 17846,9938 17944,9980 18041,10022 18139,10064 18237,10107 18335,10149 18432,10192 18530,10234 18628,10277 18726,10320 18823,10363 18921,10406 19019,10449 19117,10493 19214,10536 19312,10580 19410,10624 19508,10667"/>
 <text class="SVGTextShape"><tspan class="TextParagraph" font-family="Liberation Sans, sans-serif" font-size="353px" font-weight="400"><tspan class="TextPosition" x="1822" y="16055"><tspan fill="rgb(0,0,0)" stroke="none">0</tspan></tspan></tspan></text>
 <text class="SVGTextShape"><tspan class="TextParagraph" font-family="Liberation Sans, sans-serif" font-size="353px" font-weight="400"><tspan class="TextPosition" x="3684" y="16055"><tspan fill="rgb(0,0,0)" stroke="none">20</tspan></tspan></tspan></text>
 <text class="SVGTextShape"><tspan class="TextParagraph" font-family="Liberation Sans, sans-serif" font-size="353px" font-weight="400"><tspan class="TextPosition" x="5639" y="16055"><tspan fill="rgb(0,0,0)" stroke="none">40</tspan></tspan></tspan></text>
 <text class="SVGTextShape"><tspan class="TextParagraph" font-family="Liberation Sans, sans-serif" font-size="353px" font-weight="400"><tspan class="TextPosition" x="7594" y="16055"><tspan fill="rgb(0,0,0)" stroke="none">60</tspan></tspan></tspan></text>
 <text class="SVGTextShape"><tspan class="TextParagraph" font-family="Liberation Sans, sans-serif" font-size="353px" font-weight="400"><tspan class="TextPosition" x="9549" y="16055"><tspan fill="rgb(0,0,0)" stroke="none">80</tspan></tspan></tspan></text>
 <text class="SVGTextShape"><tspan class="TextParagraph" font-family="Liberation Sans, sans-serif" font-size="353px" font-weight="400"><tspan class="TextPosition" x="11411" y="16055"><tspan fill="rgb(0,0,0)" stroke="none">100</tspan></tspan></tspan></text>
 <text class="SVGTextShape"><tspan class="TextParagraph" font-family="Liberation Sans, sans-serif" font-size="353px" font-weight="400"><tspan class="TextPosition" x="13366" y="16055"><tspan fill="rgb(0,0,0)" stroke="none">120</tspan></tspan></tspan></text>
 <text class="SVGTextShape"><tspan class="TextParagraph" font-family="Liberation Sans, sans-serif" font-size="353px" font-weight="400"><tspan class="TextPosition" x="15321" y="16055"><tspan fill="rgb(0,0,0)" stroke="none">140</tspan></tspan></tspan></text>
 <text class="SVGTextShape"><tspan class="TextParagraph" font-family="Liberation Sans, sans-serif" font-size="353px" font-weight="400"><tspan class="TextPosition" x="17276" y="16055"><tspan fill="rgb(0,0,0)" stroke="none">160</tspan></tspan></tspan></text>
 <text class="SVGTextShape"><tspan class="TextParagraph" font-family="Liberation Sans, sans-serif" font-size="353px" font-weight="400"><tspan class="TextPosition" x="19231" y="16055"><tspan fill="rgb(0,0,0)" stroke="none">180</tspan></tspan></tspan></text>
 <text class="SVGTextShape"><tspan class="TextParagraph" font-family="Liberation Sans, sans-serif" font-size="353px" font-weight="400"><tspan class="TextPosition" x="1480" y="15758"><tspan fill="rgb(0,0,0)" stroke="none">0</tspan></tspan></tspan></text>
 <text class="SVGTextShape"><tspan class="TextParagraph" font-family="Liberation Sans, sans-serif" font-size="353px" font-weight="400"><tspan class="TextPosition" x="1295" y="14473"><tspan fill="rgb(0,0,0)" stroke="none">10</tspan></tspan></tspan></text>
 <text class="SVGTextShape"><tspan class="TextParagraph" font-family="Liberation Sans, sans-serif" font-size="353px" font-weight="400"><tspan class="TextPosition" x="1295" y="13189"><tspan fill="rgb(0,0,0)" stroke="none">20</tspan></tspan></tspan></text>
 <text class="SVGTextShape"><tspan class="TextParagraph" font-family="Liberation Sans, sans-serif" font-size="353px" font-weight="400"><tspan class="TextPosition" x="1295" y="11904"><tspan fill="rgb(0,0,0)" stroke="none">30</tspan></tspan></tspan></text>
 <text class="SVGTextShape"><tspan class="TextParagraph" font-family="Liberation Sans, sans-serif" font-size="353px" font-weight="400"><tspan class="TextPosition" x="1295" y="10620"><tspan fill="rgb(0,0,0)" stroke="none">40</tspan></tspan></tspan></text>
 <text class="SVGTextShape"><tspan class="TextParagraph" font-family="Liberation Sans, sans-serif" font-size="353px" font-weight="400"><tspan class="TextPosition" x="1295" y="9336"><tspan fill="rgb(0,0,0)" stroke="none">50</tspan></tspan></tspan></text>
 <text class="SVGTextShape"><tspan class="TextParagraph" font-family="Liberation Sans, sans-serif" font-size="353px" font-weight="400"><tspan class="TextPosition" x="1295" y="8051"><tspan fill="rgb(0,0,0)" stroke="none">60</tspan></tspan></tspan></text>
 <text class="SVGTextShape"><tspan class="TextParagraph" font-family="Liberation Sans, sans-serif" font-size="353px" font-weight="400"><tspan class="TextPosition" x="1295" y="6767"><tspan fill="rgb(0,0,0)" stroke="none">70</tspan></tspan></tspan></text>
 <text class="SVGTextShape"><tspan class="TextParagraph" font-family="Liberation Sans, sans-serif" font-size="353px" font-weight="400"><tspan class="TextPosition" x="1295" y="5482"><tspan fill="rgb(0,0,0)" stroke="none">80</tspan></tspan></tspan></text>
 <text class="SVGTextShape"><tspan class="TextParagraph" font-family="Liberation Sans, sans-serif" font-size="353px" font-weight="400"><tspan class="TextPosition" x="1295" y="4198"><tspan fill="rgb(0,0,0)" stroke="none">90</tspan></tspan></tspan></text>
 <text class="SVGTextShape"><tspan class="TextParagraph" font-family="Liberation Sans, sans-serif" font-size="353px" font-weight="400"><tspan class="TextPosition" x="1109" y="2914"><tspan fill="rgb(0,0,0)" stroke="none">100</tspan></tspan></tspan></text>
 <text class="SVGTextShape"><tspan class="TextParagraph" font-family="Liberation Sans, sans-serif" font-size="353px" font-weight="400"><tspan class="TextPosition" x="19758" y="15758"><tspan fill="rgb(0,0,0)" stroke="none">500</tspan></tspan></tspan></text>
 <text class="SVGTextShape"><tspan class="TextParagraph" font-family="Liberation Sans, sans-serif" font-size="353px" font-weight="400"><tspan class="TextPosition" x="19758" y="13189"><tspan fill="rgb(0,0,0)" stroke="none">550</tspan></tspan></tspan></text>
 <text class="SVGTextShape"><tspan class="TextParagraph" font-family="Liberation Sans, sans-serif" font-size="353px" font-weight="400"><tspan class="TextPosition" x="19758" y="10620"><tspan fill="rgb(0,0,0)" stroke="none">600</tspan></tspan></tspan></text>
 <text class="SVGTextShape"><tspan class="TextParagraph" font-family="Liberation Sans, sans-serif" font-size="353px" font-weight="400"><tspan class="TextPosition" x="19758" y="8051"><tspan fill="rgb(0,0,0)" stroke="none">650</tspan></tspan></tspan></text>
 <text class="SVGTextShape"><tspan class="TextParagraph" font-family="Liberation Sans, sans-serif" font-size="353px" font-weight="400"><tspan class="TextPosition" x="19758" y="5482"><tspan fill="rgb(0,0,0)" stroke="none">700</tspan></tspan></tspan></text>
 <text class="SVGTextShape"><tspan class="TextParagraph" font-family="Liberation Sans, sans-serif" font-size="353px" font-weight="400"><tspan class="TextPosition" x="19758" y="2914"><tspan fill="rgb(0,0,0)" stroke="none">750</tspan></tspan></tspan></text>
 <text class="SVGTextShape"><tspan class="TextParagraph" font-family="Liberation Sans, sans-serif" font-size="459px" font-weight="400"><tspan class="TextPosition" x="8424" y="1030"><tspan fill="rgb(0,0,0)" stroke="none">The PyWeight Approach</tspan></tspan></tspan></text>
 <text class="SVGTextShape"><tspan class="TextParagraph" font-family="Liberation Sans, sans-serif" font-size="388px" font-weight="400"><tspan class="TextPosition" x="7366" y="2119"><tspan fill="rgb(0,0,0)" stroke="none">Weight loss and caloric deficit over time</tspan></tspan></tspan></text>
 <path fill="rgb(255,255,255)" stroke="none" d="M 17169,4853 L 15308,4853 15308,3176 19029,3176 19029,4853 17169,4853 Z"/>
 <path fill="none" stroke="rgb(76,76,76)" stroke-linejoin="round" d="M 17169,4853 L 15308,4853 15308,3176 19029,3176 19029,4853 17169,4853 Z"/>
 <path fill="none" stroke="rgb(0,69,134)" stroke-width="80" stroke-linejoin="round" d="M 15646,3667 L 16446,3667"/>
 <path fill="none" stroke="rgb(255,66,14)" stroke-width="80" stroke-linejoin="round" d="M 15646,4358 L 16446,4358"/>
 <text class="SVGTextShape"><tspan class="TextParagraph" font-family="Liberation Sans, sans-serif" font-size="353px" font-weight="400"><tspan class="TextPosition" x="16546" y="3787"><tspan fill="rgb(0,0,0)" stroke="none">Caloric Deficit</tspan></tspan></tspan></text>
 <text class="SVGTextShape"><tspan class="TextParagraph" font-family="Liberation Sans, sans-serif" font-size="353px" font-weight="400"><tspan class="TextPosition" x="16546" y="4478"><tspan fill="rgb(0,0,0)" stroke="none">Weight</tspan></tspan></tspan></text>
 <text class="SVGTextShape"><tspan class="TextParagraph" font-family="Liberation Sans, sans-serif" font-size="318px" font-weight="400"><tspan class="TextPosition" x="9918" y="16881"><tspan fill="rgb(0,0,0)" stroke="none">Day of Diet</tspan></tspan></tspan></text>
 <text class="SVGTextShape" transform="rotate(-90 504 10715)"><tspan class="TextParagraph" font-family="Liberation Sans, sans-serif" font-size="318px" font-weight="400"><tspan class="TextPosition" x="504" y="10715"><tspan fill="rgb(0,0,0)" stroke="none">Weight (kilograms)</tspan></tspan></tspan></text>
 <text class="SVGTextShape" transform="rotate(-90 21133 10529)"><tspan class="TextParagraph" font-family="Liberation Sans, sans-serif" font-size="318px" font-weight="400"><tspan class="TextPosition" x="21133" y="10529"><tspan fill="rgb(0,0,0)" stroke="none">Deficit (calories)</tspan></tspan></tspan></text>
</svg>
