<?xml version="1.0" encoding="UTF-8"?>
<!DOCTYPE svg PUBLIC "-//W3C//DTD SVG 1.1//EN" "http://www.w3.org/Graphics/SVG/1.1/DTD/svg11.dtd">
<svg width="193mm" height="131mm" viewBox="0 0 19300 13100" version="1.1" xmlns="http://www.w3.org/2000/svg" xmlns:xlink="http://www.w3.org/1999/xlink" stroke-width="28.222" stroke-linejoin="round" xml:space="preserve">
 <path fill="rgb(255,255,255)" stroke="none" d="M 9637,13095 L 0,13095 0,0 19274,0 19274,13095 9637,13095 Z"/>
 <path fill="none" stroke="rgb(179,179,179)" stroke-linejoin="round" d="M 9142,11206 L 2058,11206 2058,2580 16226,2580 16226,11206 9142,11206 Z"/>
 <path fill="none" stroke="rgb(179,179,179)" stroke-linejoin="round" d="M 2057,2579 L 2057,11205"/>
 <path fill="none" stroke="rgb(179,179,179)" stroke-linejoin="round" d="M 3997,2579 L 3997,11205"/>
 <path fill="none" stroke="rgb(179,179,179)" stroke-linejoin="round" d="M 5937,2579 L 5937,11205"/>
 <path fill="none" stroke="rgb(179,179,179)" stroke-linejoin="round" d="M 7876,2579 L 7876,11205"/>
 <path fill="none" stroke="rgb(179,179,179)" stroke-linejoin="round" d="M 9815,2579 L 9815,11205"/>
 <path fill="none" stroke="rgb(179,179,179)" stroke-linejoin="round" d="M 11755,2579 L 11755,11205"/>
 <path fill="none" stroke="rgb(179,179,179)" stroke-linejoin="round" d="M 13694,2579 L 13694,11205"/>
 <path fill="none" stroke="rgb(179,179,179)" stroke-linejoin="round" d="M 15634,2579 L 15634,11205"/>
 <path fill="none" stroke="rgb(179,179,179)" stroke-linejoin="round" d="M 16225,11205 L 2057,11205"/>
 <path fill="none" stroke="rgb(179,179,179)" stroke-linejoin="round" d="M 16225,10246 L 2057,10246"/>
 <path fill="none" stroke="rgb(179,179,179)" stroke-linejoin="round" d="M 16225,9287 L 2057,9287"/>
 <path fill="none" stroke="rgb(179,179,179)" stroke-linejoin="round" d="M 16225,8329 L 2057,8329"/>
 <path fill="none" stroke="rgb(179,179,179)" stroke-linejoin="round" d="M 16225,7370 L 2057,7370"/>
 <path fill="none" stroke="rgb(179,179,179)" stroke-linejoin="round" d="M 16225,6413 L 2057,6413"/>
 <path fill="none" stroke="rgb(179,179,179)" stroke-linejoin="round" d="M 16225,5454 L 2057,5454"/>
 <path fill="none" stroke="rgb(179,179,179)" stroke-linejoin="round" d="M 16225,4496 L 2057,4496"/>
 <path fill="none" stroke="rgb(179,179,179)" stroke-linejoin="round" d="M 16225,3537 L 2057,3537"/>
 <path fill="none" stroke="rgb(179,179,179)" stroke-linejoin="round" d="M 16225,2579 L 2057,2579"/>
 <path fill="none" stroke="rgb(179,179,179)" stroke-linejoin="round" d="M 2057,11355 L 2057,11205"/>
 <path fill="none" stroke="rgb(179,179,179)" stroke-linejoin="round" d="M 2057,11355 L 2057,11205"/>
 <path fill="none" stroke="rgb(179,179,179)" stroke-linejoin="round" d="M 3997,11355 L 3997,11205"/>
 <path fill="none" stroke="rgb(179,179,179)" stroke-linejoin="round" d="M 3997,11355 L 3997,11205"/>
 <path fill="none" stroke="rgb(179,179,179)" stroke-linejoin="round" d="M 5937,11355 L 5937,11205"/>
 <path fill="none" stroke="rgb(179,179,179)" stroke-linejoin="round" d="M 5937,11355 L 5937,11205"/>
 <path fill="none" stroke="rgb(179,179,179)" stroke-linejoin="round" d="M 7876,11355 L 7876,11205"/>
 <path fill="none" stroke="rgb(179,179,179)" stroke-linejoin="round" d="M 7876,11355 L 7876,11205"/>
 <path fill="none" stroke="rgb(179,179,179)" stroke-linejoin="round" d="M 9815,11355 L 9815,11205"/>
 <path fill="none" stroke="rgb(179,179,179)" stroke-linejoin="round" d="M 9815,11355 L 9815,11205"/>
 <path fill="none" stroke="rgb(179,179,179)" stroke-linejoin="round" d="M 11755,11355 L 11755,11205"/>
 <path fill="none" stroke="rgb(179,179,179)" stroke-linejoin="round" d="M 11755,11355 L 11755,11205"/>
 <path fill="none" stroke="rgb(179,179,179)" stroke-linejoin="round" d="M 13694,11355 L 13694,11205"/>
 <path fill="none" stroke="rgb(179,179,179)" stroke-linejoin="round" d="M 13694,11355 L 13694,11205"/>
 <path fill="none" stroke="rgb(179,179,179)" stroke-linejoin="round" d="M 15634,11355 L 15634,11205"/>
 <path fill="none" stroke="rgb(179,179,179)" stroke-linejoin="round" d="M 15634,11355 L 15634,11205"/>
 <path fill="none" stroke="rgb(179,179,179)" stroke-linejoin="round" d="M 2057,11205 L 16225,11205"/>
 <path fill="none" stroke="rgb(179,179,179)" stroke-linejoin="round" d="M 1907,11205 L 2057,11205"/>
 <path fill="none" stroke="rgb(179,179,179)" stroke-linejoin="round" d="M 1907,11205 L 2057,11205"/>
 <path fill="none" stroke="rgb(179,179,179)" stroke-linejoin="round" d="M 1907,10246 L 2057,10246"/>
 <path fill="none" stroke="rgb(179,179,179)" stroke-linejoin="round" d="M 1907,10246 L 2057,10246"/>
 <path fill="none" stroke="rgb(179,179,179)" stroke-linejoin="round" d="M 1907,9287 L 2057,9287"/>
 <path fill="none" stroke="rgb(179,179,179)" stroke-linejoin="round" d="M 1907,9287 L 2057,9287"/>
 <path fill="none" stroke="rgb(179,179,179)" stroke-linejoin="round" d="M 1907,8329 L 2057,8329"/>
 <path fill="none" stroke="rgb(179,179,179)" stroke-linejoin="round" d="M 1907,8329 L 2057,8329"/>
 <path fill="none" stroke="rgb(179,179,179)" stroke-linejoin="round" d="M 1907,7370 L 2057,7370"/>
 <path fill="none" stroke="rgb(179,179,179)" stroke-linejoin="round" d="M 1907,7370 L 2057,7370"/>
 <path fill="none" stroke="rgb(179,179,179)" stroke-linejoin="round" d="M 1907,6413 L 2057,6413"/>
 <path fill="none" stroke="rgb(179,179,179)" stroke-linejoin="round" d="M 1907,6413 L 2057,6413"/>
 <path fill="none" stroke="rgb(179,179,179)" stroke-linejoin="round" d="M 1907,5454 L 2057,5454"/>
 <path fill="none" stroke="rgb(179,179,179)" stroke-linejoin="round" d="M 1907,5454 L 2057,5454"/>
 <path fill="none" stroke="rgb(179,179,179)" stroke-linejoin="round" d="M 1907,4496 L 2057,4496"/>
 <path fill="none" stroke="rgb(179,179,179)" stroke-linejoin="round" d="M 1907,4496 L 2057,4496"/>
 <path fill="none" stroke="rgb(179,179,179)" stroke-linejoin="round" d="M 1907,3537 L 2057,3537"/>
 <path fill="none" stroke="rgb(179,179,179)" stroke-linejoin="round" d="M 1907,3537 L 2057,3537"/>
 <path fill="none" stroke="rgb(179,179,179)" stroke-linejoin="round" d="M 1907,2579 L 2057,2579"/>
 <path fill="none" stroke="rgb(179,179,179)" stroke-linejoin="round" d="M 1907,2579 L 2057,2579"/>
 <path fill="none" stroke="rgb(179,179,179)" stroke-linejoin="round" d="M 2057,11205 L 2057,2579"/>
 <path fill="none" stroke="rgb(126,0,33)" stroke-width="80" stroke-linejoin="round" d="M 2057,3483 L 2077,3498 2087,3506 2096,3514 2106,3521 2116,3529 2125,3537 2135,3545 2145,3552 2154,3560 2164,3568 2174,3575 2184,3583 2193,3590 2203,3598 2213,3606 2232,3621 2242,3628 2251,3636 2261,3643 2271,3651 2281,3658 2300,3673 2310,3681 2319,3688 2329,3696 2339,3703 2348,3710 2368,3725 2378,3733 2387,3740 2397,3747 2407,3755 2416,3762 2436,3776 2445,3784 2455,3791 2465,3798 2475,3805 2484,3813 2494,3820 2504,3827 2513,3834 2523,3841 2533,3848 2542,3856 2562,3870 2572,3877 2581,3884 2601,3898 2610,3905 2620,3912 2630,3919 2639,3926 2649,3933 2668,3947 2678,3954 2688,3961 2698,3968 2707,3975 2727,3989 2736,3996 2746,4002 2765,4016 2775,4023 2785,4030 2795,4037 2804,4043 2824,4057 2833,4064 2843,4070 2862,4084 2872,4090 2882,4097 2892,4104 2901,4111 2911,4117 2921,4124 2930,4130 2940,4137 2959,4150 2969,4157 2979,4163 2989,4170 2998,4177 3008,4183 3018,4190 3027,4196 3037,4203 3056,4216 3066,4222 3076,4228 3095,4241 3105,4248 3115,4254 3124,4261 3134,4267 3153,4280 3163,4286 3173,4292 3192,4305 3202,4311 3212,4318 3221,4324 3231,4330 3241,4336 3260,4349 3270,4355 3279,4361 3289,4368 3299,4374 3318,4386 3328,4392 3338,4398 3357,4411 3367,4417 3386,4429 3396,4435 3406,4441 3415,4447 3425,4453 3435,4459 3444,4465 3454,4471 3464,4477 3483,4489 3493,4495 3503,4501 3512,4507 3522,4513 3532,4519 3551,4531 3561,4537 3580,4548 3590,4554 3600,4560 3619,4572 3629,4578 3638,4583 3648,4589 3658,4595 3667,4601 3687,4612 3696,4618 3706,4624 3716,4629 3726,4635 3735,4641 3745,4647 3755,4652 3764,4658 3774,4664 3784,4669 3793,4675 3803,4681 3813,4686 3823,4692 3832,4697 3842,4703 3852,4709 3861,4714 3871,4720 3881,4725 3890,4731 3910,4742 3920,4747 3929,4753 3939,4758 3949,4764 3958,4769 3978,4780 3987,4786 4007,4796 4017,4802 4026,4807 4036,4813 4046,4818 4055,4823 4075,4834 4084,4839 4094,4845 4104,4850 4114,4855 4123,4861 4133,4866 4143,4871 4152,4877 4172,4887 4181,4892 4191,4898 4201,4903 4210,4908 4220,4913 4230,4918 4240,4924 4249,4929 4259,4934 4278,4944 4288,4949 4298,4955 4307,4960 4317,4965 4327,4970 4337,4975 4346,4980 4356,4985 4375,4995 4385,5000 4404,5010 4414,5015 4424,5020 4434,5025 4443,5030 4453,5035 4472,5045 4482,5050 4501,5060 4511,5065 4521,5070 4531,5075 4540,5080 4550,5085 4560,5090 4569,5094 4579,5099 4589,5104 4608,5114 4618,5119 4637,5128 4647,5133 4666,5143 4676,5148 4686,5152 4695,5157 4705,5162 4715,5167 4724,5171 4734,5176 4744,5181 4763,5190 4773,5195 4783,5200 4802,5209 4812,5214 4831,5223 4841,5227 4851,5232 4860,5237 4870,5241 4880,5246 4889,5251 4899,5255 4909,5260 4928,5269 4938,5273 4948,5278 4967,5287 4977,5292 4996,5301 5006,5305 5015,5310 5025,5314 5035,5318 5045,5323 5054,5327 5064,5332 5074,5336 5083,5341 5093,5345 5103,5350 5112,5354 5132,5363 5142,5367 5161,5376 5171,5380 5180,5385 5200,5393 5209,5398 5229,5406 5238,5410 5258,5419 5268,5423 5277,5428 5297,5436 5306,5440 5326,5449 5335,5453 5355,5461 5365,5466 5374,5470 5384,5474 5394,5478 5403,5482 5413,5487 5423,5491 5432,5495 5442,5499 5462,5507 5471,5511 5481,5516 5491,5520 5500,5524 5510,5528 5520,5532 5529,5536 5539,5540 5559,5548 5568,5552 5588,5560 5597,5564 5607,5568 5626,5576 5636,5580 5656,5588 5665,5592 5685,5600 5694,5604 5704,5608 5723,5616 5733,5620 5752,5628 5762,5632 5772,5635 5791,5643 5801,5647 5820,5655 5830,5659 5849,5666 5859,5670 5869,5674 5888,5682 5898,5685 5917,5693 5927,5697 5937,5701 5946,5704 5956,5708 5966,5712 5985,5719 5995,5723 6005,5727 6014,5730 6024,5734 6034,5738 6053,5745 6063,5749 6073,5753 6082,5756 6092,5760 6111,5767 6121,5771 6131,5775 6140,5778 6150,5782 6160,5785 6179,5793 6189,5796 6199,5800 6218,5807 6228,5811 6247,5818 6257,5821 6276,5828 6286,5832 6296,5835 6315,5842 6325,5846 6344,5853 6354,5856 6363,5860 6383,5867 6393,5870 6412,5877 6422,5881 6431,5884 6441,5888 6451,5891 6460,5894 6470,5898 6480,5901 6490,5905 6509,5911 6519,5915 6528,5918 6548,5925 6557,5928 6577,5935 6587,5938 6606,5945 6616,5948 6625,5952 6645,5958 6654,5962 6664,5965 6674,5968 6684,5971 6703,5978 6713,5981 6722,5985 6742,5991 6751,5994 6771,6001 6780,6004 6790,6007 6810,6014 6819,6017 6839,6023 6848,6026 6858,6030 6868,6033 6877,6036 6887,6039 6907,6045 6916,6048 6936,6055 6945,6058 6955,6061 6974,6067 6984,6070 7004,6076 7013,6080 7023,6083 7033,6086 7042,6089 7052,6092 7071,6098 7081,6101 7101,6107 7110,6110 7120,6113 7139,6119 7149,6122 7159,6125 7168,6128 7178,6131 7198,6137 7207,6140 7217,6143 7236,6149 7246,6152 7265,6158 7275,6161 7285,6164 7295,6167 7304,6170 7314,6172 7324,6175 7333,6178 7343,6181 7362,6187 7372,6190 7382,6193 7401,6198 7411,6201 7421,6204 7430,6207 7440,6210 7459,6216 7469,6218 7479,6221 7498,6227 7508,6230 7527,6235 7537,6238 7547,6241 7556,6244 7566,6246 7576,6249 7595,6255 7605,6257 7624,6263 7634,6266 7644,6268 7663,6274 7673,6277 7692,6282 7702,6285 7712,6288 7731,6293 7741,6296 7760,6301 7770,6304 7789,6309 7799,6312 7809,6314 7828,6320 7838,6322 7857,6328 7867,6330 7886,6335 7896,6338 7905,6341 7925,6346 7935,6348 7954,6354 7964,6356 7973,6359 7983,6361 7993,6364 8002,6366 8022,6372 8032,6374 8041,6377 8051,6379 8061,6382 8070,6384 8090,6389 8099,6392 8119,6397 8129,6399 8138,6402 8158,6407 8167,6409 8187,6414 8196,6417 8216,6422 8226,6424 8235,6427 8245,6429 8255,6431 8264,6434 8284,6439 8293,6441 8303,6444 8323,6448 8332,6451 8352,6456 8361,6458 8381,6463 8390,6465 8400,6468 8419,6472 8429,6475 8449,6479 8458,6482 8468,6484 8487,6489 8497,6491 8516,6496 8526,6498 8546,6503 8555,6505 8565,6507 8584,6512 8594,6514 8613,6519 8623,6521 8643,6526 8652,6528 8662,6530 8681,6535 8691,6537 8710,6541 8720,6544 8730,6546 8740,6548 8749,6549 8759,6552 8778,6556 8788,6558 8798,6560 8807,6563 8817,6565 8827,6567 8846,6571 8856,6574 8875,6578 8885,6580 8895,6582 8914,6587 8924,6589 8943,6593 8953,6595 8972,6600 8982,6602 8992,6604 9011,6608 9021,6610 9040,6614 9050,6616 9060,6619 9079,6623 9089,6625 9098,6627 9108,6629 9118,6631 9137,6635 9147,6637 9157,6639 9176,6643 9186,6646 9205,6650 9215,6652 9224,6654 9234,6656 9244,6658 9254,6660 9273,6664 9283,6666 9302,6670 9312,6672 9321,6674 9341,6678 9351,6680 9370,6684 9380,6686 9399,6690 9409,6692 9418,6694 9438,6698 9447,6700 9467,6703 9477,6705 9486,6707 9506,6711 9515,6713 9535,6717 9544,6719 9564,6723 9574,6725 9583,6727 9603,6730 9612,6732 9632,6736 9640,6738 9650,6740 9670,6744 9679,6745 9699,6749 9708,6751 9728,6755 9737,6757 9747,6758 9767,6762 9776,6764 9796,6768 9805,6769 9825,6773 9834,6775 9844,6777 9864,6780 9873,6782 9893,6786 9902,6788 9912,6789 9931,6793 9941,6795 9960,6798 9970,6800 9990,6804 9999,6805 10009,6807 10028,6811 10038,6812 10057,6816 10067,6818 10077,6819 10096,6823 10106,6824 10116,6826 10125,6828 10135,6830 10154,6833 10164,6835 10174,6836 10184,6838 10193,6840 10203,6842 10222,6845 10232,6847 10242,6848 10261,6852 10271,6853 10290,6857 10300,6858 10319,6862 10329,6863 10339,6865 10358,6868 10368,6870 10387,6873 10397,6875 10407,6876 10416,6878 10426,6880 10436,6881 10455,6885 10465,6886 10484,6889 10494,6891 10504,6893 10523,6896 10533,6897 10552,6901 10562,6902 10581,6905 10591,6907 10601,6909 10620,6912 10630,6913 10649,6916 10659,6918 10668,6919 10688,6923 10698,6924 10717,6927 10727,6929 10746,6932 10756,6933 10765,6935 10785,6938 10795,6939 10814,6942 10824,6944 10833,6945 10853,6948 10862,6950 10882,6953 10892,6954 10911,6957 10921,6959 10930,6960 10950,6963 10959,6965 10979,6968 10988,6969 10998,6971 11018,6974 11027,6975 11047,6978 11056,6979 11076,6982 11085,6984 11095,6985 11115,6988 11124,6989 11144,6992 11153,6994 11173,6996 11182,6998 11192,6999 11212,7002 11221,7004 11241,7006 11250,7008 11260,7009 11270,7010 11279,7012 11289,7013 11309,7016 11318,7017 11338,7020 11347,7022 11357,7023 11367,7024 11376,7026 11386,7027 11406,7030 11415,7031 11425,7032 11444,7035 11454,7036 11464,7038 11473,7039 11483,7040 11502,7043 11512,7044 11522,7046 11541,7048 11551,7050 11561,7051 11570,7052 11580,7054 11590,7055 11609,7058 11619,7059 11638,7061 11648,7063 11658,7064 11667,7065 11677,7067 11687,7068 11706,7070 11716,7072 11735,7074 11745,7076 11764,7078 11774,7079 11784,7081 11803,7083 11813,7084 11832,7087 11842,7088 11852,7089 11861,7091 11871,7092 11881,7093 11900,7096 11910,7097 11929,7099 11939,7100 11949,7102 11968,7104 11978,7105 11997,7108 12007,7109 12017,7110 12036,7113 12046,7114 12065,7116 12075,7117 12094,7120 12104,7121 12113,7122 12133,7124 12143,7126 12162,7128 12172,7129 12181,7130 12201,7133 12210,7134 12230,7136 12240,7137 12259,7140 12269,7141 12278,7142 12298,7144 12307,7145 12327,7148 12337,7149 12346,7150 12366,7152 12375,7153 12395,7156 12404,7157 12424,7159 12434,7160 12443,7161 12463,7163 12472,7164 12492,7167 12501,7168 12521,7170 12531,7171 12540,7172 12560,7174 12569,7175 12589,7178 12598,7179 12608,7180 12627,7182 12637,7183 12657,7185 12666,7186 12686,7188 12695,7189 12705,7190 12724,7193 12734,7194 12754,7196 12763,7197 12773,7198 12792,7200 12802,7201 12821,7203 12831,7204 12851,7206 12860,7207 12870,7208 12889,7210 12899,7211 12918,7213 12928,7214 12938,7215 12957,7217 12967,7218 12986,7220 12996,7221 13015,7223 13025,7224 13035,7225 13054,7227 13064,7228 13083,7230 13093,7231 13112,7233 13122,7234 13132,7235 13141,7236 13151,7237 13161,7238 13180,7240 13190,7241 13200,7242 13219,7244 13229,7245 13248,7247 13258,7248 13277,7250 13287,7251 13297,7252 13316,7254 13326,7255 13345,7256 13355,7257 13365,7258 13384,7260 13394,7261 13413,7263 13423,7264 13442,7266 13452,7267 13462,7268 13481,7269 13491,7270 13510,7272 13520,7273 13529,7274 13549,7276 13559,7277 13578,7278 13588,7279 13607,7281 13617,7282 13626,7283 13646,7285 13655,7286 13675,7287 13685,7288 13704,7290 13714,7291 13723,7292 13743,7294 13752,7294 13772,7296 13782,7297 13791,7298 13811,7300 13820,7300 13840,7302 13849,7303 13869,7305 13879,7306 13888,7306 13908,7308 13917,7309 13937,7311 13946,7312 13956,7312 13976,7314 13985,7315 14005,7317 14014,7317 14034,7319 14043,7320 14053,7321 14073,7322 14082,7323 14102,7325 14111,7326 14121,7326 14140,7328 14150,7329 14160,7330 14169,7330 14179,7331 14199,7333 14208,7334 14218,7334 14237,7336 14247,7337 14266,7338 14276,7339 14286,7340 14305,7342 14315,7342 14334,7344 14344,7345 14363,7346 14373,7347 14383,7348 14402,7349 14412,7350 14431,7352 14441,7352 14460,7354 14470,7355 14480,7355 14490,7356 14499,7357 14509,7358 14528,7359 14538,7360 14548,7361 14567,7362 14577,7363 14596,7365 14606,7365 14625,7367 14635,7367 14645,7368 14654,7369 14664,7370 14674,7370 14693,7372 14703,7373 14713,7373 14732,7375 14742,7376 14761,7377 14771,7378 14790,7379 14800,7380 14810,7381 14829,7382 14839,7383 14858,7384 14868,7385 14877,7386 14897,7387 14907,7388 14926,7389 14936,7390 14955,7391 14965,7392 14974,7392 14994,7394 15004,7395 15023,7396 15033,7397 15052,7398 15062,7399 15071,7399 15091,7401 15101,7401 15120,7403 15130,7403 15139,7404 15159,7405 15168,7406 15188,7407 15197,7408 15207,7409 15217,7409 15227,7410 15236,7411 15256,7412 15265,7413 15285,7414 15294,7415 15304,7415 15324,7417 15333,7417 15353,7419 15362,7419 15382,7421 15391,7421 15401,7422 15411,7422 15421,7423 15430,7424 15450,7425 15459,7426 15469,7426 15488,7427 15498,7428 15518,7429 15527,7430 15547,7431 15556,7432 15566,7432 15585,7434 15595,7434 15615,7436 15624,7436 15644,7437 15653,7438 15663,7439 15682,7440 15692,7440 15711,7442 15721,7442 15731,7443 15750,7444 15760,7445 15779,7446 15789,7446 15808,7448 15818,7448 15828,7449 15847,7450 15857,7451 15876,7452 15886,7452 15896,7453 15915,7454 15925,7455 15944,7456 15954,7456 15973,7458 15983,7458 15993,7459 16012,7460 16022,7460 16041,7462 16051,7462 16061,7463 16080,7464 16090,7464 16109,7465 16119,7466 16138,7467 16148,7468 16158,7468 16177,7469 16187,7470 16206,7471 16216,7472 16225,7472"/>
 <path fill="none" stroke="rgb(87,157,28)" stroke-width="80" stroke-linejoin="round" d="M 2057,5199 L 2077,5208 2087,5213 2106,5222 2116,5227 2135,5236 2145,5241 2154,5245 2164,5250 2174,5254 2184,5259 2193,5264 2203,5268 2213,5273 2222,5277 2232,5282 2242,5286 2251,5291 2271,5300 2281,5304 2300,5313 2310,5318 2319,5322 2329,5327 2339,5331 2348,5336 2358,5340 2368,5344 2378,5349 2387,5353 2397,5358 2407,5362 2416,5366 2436,5375 2445,5379 2465,5388 2475,5393 2484,5397 2504,5405 2513,5410 2533,5418 2542,5423 2562,5431 2572,5435 2581,5440 2601,5448 2610,5452 2630,5461 2639,5465 2649,5469 2659,5473 2668,5478 2678,5482 2688,5486 2698,5490 2707,5494 2727,5502 2736,5507 2746,5511 2756,5515 2765,5519 2775,5523 2785,5527 2795,5531 2804,5535 2814,5539 2824,5543 2833,5547 2843,5552 2862,5560 2872,5564 2882,5568 2892,5572 2901,5576 2911,5580 2930,5588 2940,5592 2959,5599 2969,5603 2979,5607 2989,5611 2998,5615 3008,5619 3027,5627 3037,5631 3047,5635 3056,5639 3066,5643 3076,5646 3095,5654 3105,5658 3124,5666 3134,5670 3144,5673 3153,5677 3163,5681 3173,5685 3192,5692 3202,5696 3212,5700 3221,5704 3231,5707 3241,5711 3260,5719 3270,5722 3279,5726 3289,5730 3299,5734 3318,5741 3328,5745 3338,5748 3347,5752 3357,5756 3367,5759 3386,5767 3396,5770 3415,5778 3425,5781 3435,5785 3454,5792 3464,5796 3483,5803 3493,5806 3503,5810 3522,5817 3532,5821 3551,5828 3561,5831 3580,5838 3590,5842 3600,5845 3619,5852 3629,5856 3638,5859 3648,5863 3658,5866 3667,5870 3677,5873 3687,5877 3696,5880 3706,5884 3716,5887 3726,5890 3745,5897 3755,5901 3764,5904 3784,5911 3793,5914 3813,5921 3823,5924 3832,5928 3852,5935 3861,5938 3881,5945 3890,5948 3900,5951 3910,5954 3920,5958 3929,5961 3939,5964 3949,5968 3958,5971 3978,5977 3987,5981 4007,5987 4017,5991 4026,5994 4046,6000 4055,6003 4075,6010 4084,6013 4094,6016 4114,6023 4123,6026 4143,6032 4152,6035 4172,6042 4181,6045 4191,6048 4210,6054 4220,6057 4240,6064 4249,6067 4259,6070 4278,6076 4288,6079 4307,6085 4317,6088 4337,6094 4346,6097 4356,6100 4375,6107 4385,6110 4404,6116 4414,6119 4424,6122 4434,6125 4443,6128 4453,6131 4472,6137 4482,6140 4501,6146 4511,6148 4521,6151 4540,6157 4550,6160 4560,6163 4569,6166 4579,6169 4589,6172 4608,6178 4618,6181 4637,6186 4647,6189 4666,6195 4676,6198 4686,6201 4695,6204 4705,6207 4715,6209 4734,6215 4744,6218 4763,6224 4773,6226 4783,6229 4802,6235 4812,6238 4831,6243 4841,6246 4851,6249 4870,6254 4880,6257 4899,6263 4909,6265 4928,6271 4938,6273 4948,6276 4967,6282 4977,6284 4996,6290 5006,6292 5015,6295 5035,6301 5045,6303 5064,6309 5074,6311 5093,6317 5103,6319 5112,6322 5132,6327 5142,6330 5161,6335 5171,6338 5180,6340 5200,6345 5209,6348 5229,6353 5238,6356 5258,6361 5268,6363 5277,6366 5297,6371 5306,6374 5316,6376 5326,6379 5335,6381 5355,6386 5365,6389 5374,6391 5394,6396 5403,6399 5413,6401 5423,6404 5432,6406 5442,6409 5462,6414 5471,6416 5491,6421 5500,6424 5520,6429 5529,6431 5539,6434 5559,6438 5568,6441 5588,6446 5597,6448 5607,6450 5626,6455 5636,6458 5656,6462 5665,6465 5685,6470 5694,6472 5704,6474 5723,6479 5733,6481 5752,6486 5762,6488 5772,6491 5791,6495 5801,6498 5820,6502 5830,6505 5849,6509 5859,6512 5869,6514 5888,6518 5898,6521 5917,6525 5927,6528 5946,6532 5956,6534 5966,6537 5985,6541 5995,6543 6014,6548 6024,6549 6034,6551 6053,6556 6063,6558 6073,6560 6082,6562 6092,6565 6111,6569 6121,6571 6131,6573 6150,6578 6160,6580 6179,6584 6189,6586 6199,6588 6218,6593 6228,6595 6247,6599 6257,6601 6276,6606 6286,6608 6296,6610 6315,6614 6325,6616 6344,6620 6354,6622 6363,6625 6373,6627 6383,6629 6393,6631 6412,6635 6422,6637 6431,6639 6441,6641 6451,6643 6460,6645 6480,6649 6490,6651 6499,6653 6509,6655 6519,6657 6528,6659 6548,6664 6557,6666 6577,6670 6587,6672 6606,6676 6616,6678 6625,6680 6645,6684 6654,6686 6674,6689 6684,6691 6693,6693 6703,6695 6713,6697 6722,6699 6742,6703 6751,6705 6761,6707 6771,6709 6780,6711 6790,6713 6810,6717 6819,6719 6839,6722 6848,6724 6868,6728 6877,6730 6887,6732 6907,6736 6916,6738 6936,6741 6945,6743 6955,6745 6974,6749 6984,6751 7004,6754 7013,6756 7033,6760 7042,6762 7052,6764 7071,6767 7081,6769 7101,6773 7110,6775 7120,6776 7139,6780 7149,6782 7168,6785 7178,6787 7198,6791 7207,6793 7217,6794 7236,6798 7246,6800 7265,6803 7275,6805 7295,6809 7304,6810 7314,6812 7333,6816 7343,6817 7362,6821 7372,6822 7382,6824 7391,6826 7401,6828 7411,6829 7430,6833 7440,6834 7459,6838 7469,6840 7479,6841 7498,6845 7508,6846 7527,6850 7537,6851 7547,6853 7566,6856 7576,6858 7595,6861 7605,6863 7615,6865 7624,6866 7634,6868 7644,6870 7663,6873 7673,6875 7692,6878 7702,6879 7712,6881 7731,6884 7741,6886 7760,6889 7770,6891 7779,6892 7789,6894 7799,6896 7809,6897 7828,6900 7838,6902 7857,6905 7867,6907 7886,6910 7896,6911 7905,6913 7925,6916 7935,6918 7954,6921 7964,6922 7973,6924 7993,6927 8002,6928 8022,6932 8032,6933 8051,6936 8061,6938 8070,6939 8090,6942 8099,6944 8109,6945 8119,6947 8129,6948 8138,6950 8158,6953 8167,6954 8187,6957 8196,6959 8216,6962 8226,6963 8235,6965 8255,6967 8264,6969 8284,6972 8293,6973 8303,6975 8323,6978 8332,6979 8352,6982 8361,6983 8371,6985 8381,6986 8390,6988 8400,6989 8419,6992 8429,6993 8449,6996 8458,6998 8468,6999 8487,7002 8497,7003 8516,7006 8526,7007 8546,7010 8555,7012 8565,7013 8584,7016 8594,7017 8613,7020 8623,7021 8643,7024 8652,7025 8662,7027 8681,7029 8691,7031 8710,7033 8720,7035 8730,7036 8740,7038 8749,7039 8759,7040 8778,7043 8788,7044 8807,7047 8817,7048 8827,7049 8837,7051 8846,7052 8856,7053 8875,7056 8885,7057 8895,7059 8914,7061 8924,7063 8933,7064 8943,7065 8953,7066 8972,7069 8982,7070 8992,7071 9011,7074 9021,7075 9040,7078 9050,7079 9060,7080 9079,7083 9089,7084 9108,7087 9118,7088 9137,7090 9147,7092 9157,7093 9176,7095 9186,7097 9205,7099 9215,7100 9234,7103 9244,7104 9254,7105 9273,7108 9283,7109 9302,7111 9312,7112 9321,7114 9341,7116 9351,7117 9370,7120 9380,7121 9399,7123 9409,7124 9418,7125 9438,7128 9447,7129 9457,7130 9467,7131 9477,7132 9486,7134 9506,7136 9515,7137 9535,7139 9544,7141 9564,7143 9574,7144 9583,7145 9603,7147 9612,7149 9632,7151 9640,7152 9650,7153 9670,7155 9679,7157 9699,7159 9708,7160 9728,7162 9737,7163 9747,7164 9767,7167 9776,7168 9796,7170 9805,7171 9825,7173 9834,7174 9844,7175 9864,7177 9873,7179 9893,7181 9902,7182 9912,7183 9922,7184 9931,7185 9941,7186 9960,7188 9970,7189 9990,7191 9999,7192 10009,7193 10028,7196 10038,7197 10057,7199 10067,7200 10077,7201 10096,7203 10106,7204 10125,7206 10135,7207 10154,7209 10164,7210 10174,7211 10193,7213 10203,7214 10222,7216 10232,7217 10242,7218 10261,7220 10271,7221 10290,7223 10300,7224 10319,7226 10329,7227 10339,7228 10358,7230 10368,7231 10387,7233 10397,7234 10407,7235 10416,7236 10426,7237 10436,7238 10455,7240 10465,7241 10484,7243 10494,7244 10504,7245 10523,7247 10533,7248 10552,7250 10562,7251 10581,7252 10591,7253 10601,7254 10620,7256 10630,7257 10649,7259 10659,7260 10668,7261 10688,7263 10698,7264 10717,7266 10727,7266 10746,7268 10756,7269 10765,7270 10785,7272 10795,7273 10814,7275 10824,7276 10833,7277 10853,7278 10862,7279 10882,7281 10892,7282 10911,7284 10921,7285 10930,7285 10950,7287 10959,7288 10979,7290 10988,7291 10998,7292 11018,7293 11027,7294 11047,7296 11056,7297 11076,7299 11085,7299 11095,7300 11115,7302 11124,7303 11144,7305 11153,7305 11173,7307 11182,7308 11192,7309 11212,7311 11221,7311 11241,7313 11250,7314 11260,7315 11279,7316 11289,7317 11309,7319 11318,7320 11338,7321 11347,7322 11357,7323 11376,7325 11386,7325 11406,7327 11415,7328 11425,7329 11435,7330 11444,7330 11454,7331 11473,7333 11483,7334 11502,7335 11512,7336 11522,7337 11541,7338 11551,7339 11570,7341 11580,7341 11590,7342 11599,7343 11609,7344 11619,7345 11638,7346 11648,7347 11667,7348 11677,7349 11687,7350 11706,7352 11716,7352 11735,7354 11745,7355 11764,7356 11774,7357 11784,7358 11803,7359 11813,7360 11832,7361 11842,7362 11852,7363 11871,7364 11881,7365 11900,7367 11910,7367 11929,7369 11939,7370 11949,7370 11968,7372 11978,7372 11997,7374 12007,7375 12017,7375 12036,7377 12046,7378 12065,7379 12075,7380 12094,7381 12104,7382 12113,7383 12133,7384 12143,7385 12162,7386 12172,7387 12181,7388 12201,7389 12210,7390 12230,7391 12240,7392 12259,7393 12269,7394 12278,7394 12298,7396 12307,7397 12327,7398 12337,7399 12346,7399 12366,7401 12375,7401 12395,7403 12404,7403 12424,7405 12434,7405 12443,7406 12463,7407 12472,7408 12482,7409 12492,7409 12501,7410 12521,7411 12531,7412 12540,7413 12560,7414 12569,7415 12589,7416 12598,7417 12608,7417 12627,7418 12637,7419 12657,7420 12666,7421 12686,7422 12695,7423 12705,7424 12724,7425 12734,7426 12754,7427 12763,7427 12773,7428 12792,7429 12802,7430 12821,7431 12831,7432 12851,7433 12860,7434 12870,7434 12889,7435 12899,7436 12918,7437 12928,7438 12938,7439 12957,7440 12967,7440 12986,7442 12996,7442 13015,7443 13025,7444 13035,7445 13054,7446 13064,7446 13083,7448 13093,7448 13103,7449 13112,7449 13122,7450 13132,7450 13151,7452 13161,7452 13180,7453 13190,7454 13200,7455 13219,7456 13229,7456 13248,7457 13258,7458 13277,7459 13287,7460 13297,7460 13316,7461 13326,7462 13345,7463 13355,7464 13365,7464 13384,7465 13394,7466 13413,7467 13423,7468 13442,7469 13452,7469 13462,7470 13481,7471 13491,7472 13510,7473 13520,7473 13529,7474 13549,7475 13559,7475 13578,7476 13588,7477 13607,7478 13617,7479 13626,7479 13646,7480 13655,7481 13675,7482 13685,7482 13704,7483 13714,7484 13723,7484 13743,7485 13752,7486 13772,7487 13782,7488 13791,7488 13801,7489 13811,7489 13820,7490 13840,7491 13849,7491 13869,7492 13879,7493 13888,7493 13908,7494 13917,7495 13937,7496 13946,7496 13956,7497 13976,7498 13985,7498 14005,7499 14014,7500 14034,7501 14043,7501 14053,7502 14073,7503 14082,7503 14102,7504 14111,7505 14121,7505 14140,7506 14150,7507 14169,7508 14179,7508 14199,7509 14208,7510 14218,7510 14237,7511 14247,7511 14266,7512 14276,7513 14286,7513 14305,7514 14315,7515 14325,7515 14334,7516 14344,7516 14363,7517 14373,7518 14383,7518 14402,7519 14412,7519 14431,7520 14441,7521 14460,7522 14470,7522 14480,7523 14499,7524 14509,7524 14528,7525 14538,7525 14548,7526 14567,7527 14577,7527 14596,7528 14606,7528 14625,7529 14635,7530 14645,7530 14664,7531 14674,7532 14693,7532 14703,7533 14713,7533 14732,7534 14742,7535 14761,7535 14771,7536 14790,7537 14800,7537 14810,7538 14829,7539 14839,7539 14858,7540 14868,7540 14877,7541 14897,7541 14907,7542 14926,7543 14936,7543 14955,7544 14965,7544 14974,7545 14994,7546 15004,7546 15023,7547 15033,7547 15052,7548 15062,7549 15071,7549 15091,7550 15101,7550 15120,7551 15130,7551 15139,7552 15159,7553 15168,7553 15188,7554 15197,7554 15217,7555 15227,7555 15236,7556 15256,7557 15265,7557 15285,7558 15294,7558 15304,7559 15324,7559 15333,7560 15353,7560 15362,7561 15382,7562 15391,7562 15401,7562 15421,7563 15430,7564 15450,7564 15459,7565 15469,7565 15488,7566 15498,7566 15518,7567 15527,7567 15547,7568 15556,7568 15566,7569 15585,7570 15595,7570 15615,7571 15624,7571 15644,7572 15653,7572 15663,7573 15682,7573 15692,7574 15711,7574 15721,7575 15731,7575 15750,7576 15760,7576 15779,7577 15789,7577 15808,7578 15818,7578 15828,7579 15847,7579 15857,7580 15876,7580 15886,7581 15896,7581 15905,7581 15915,7582 15925,7582 15944,7583 15954,7583 15973,7584 15983,7584 15993,7585 16012,7585 16022,7586 16041,7586 16051,7587 16061,7587 16080,7588 16090,7588 16109,7589 16119,7589 16138,7590 16148,7590 16158,7590 16177,7591 16187,7591 16206,7592 16216,7592 16225,7593"/>
 <path fill="none" stroke="rgb(255,211,32)" stroke-width="80" stroke-linejoin="round" d="M 2057,6057 L 2077,6063 2087,6066 2096,6069 2106,6072 2116,6076 2135,6082 2145,6085 2154,6088 2174,6094 2184,6097 2203,6103 2213,6106 2222,6109 2232,6112 2242,6115 2251,6118 2271,6124 2281,6127 2300,6133 2310,6136 2319,6139 2339,6145 2348,6148 2358,6151 2368,6154 2378,6157 2397,6163 2407,6166 2416,6169 2436,6174 2445,6177 2465,6183 2475,6186 2484,6189 2504,6195 2513,6198 2533,6203 2542,6206 2562,6212 2572,6215 2581,6218 2601,6223 2610,6226 2620,6229 2630,6232 2639,6234 2649,6237 2668,6243 2678,6246 2698,6251 2707,6254 2717,6257 2727,6259 2736,6262 2746,6265 2765,6270 2775,6273 2795,6279 2804,6281 2814,6284 2824,6287 2833,6289 2843,6292 2853,6295 2862,6297 2872,6300 2892,6306 2901,6308 2911,6311 2930,6316 2940,6319 2950,6321 2959,6324 2969,6327 2989,6332 2998,6335 3008,6337 3027,6342 3037,6345 3056,6350 3066,6353 3076,6355 3095,6361 3105,6363 3124,6368 3134,6371 3153,6376 3163,6378 3173,6381 3192,6386 3202,6389 3221,6394 3231,6396 3241,6399 3250,6401 3260,6404 3270,6406 3289,6411 3299,6414 3309,6416 3318,6418 3328,6421 3338,6423 3357,6428 3367,6431 3386,6436 3396,6438 3415,6443 3425,6445 3435,6448 3454,6453 3464,6455 3483,6460 3493,6462 3503,6465 3522,6469 3532,6472 3551,6476 3561,6479 3570,6481 3580,6483 3590,6486 3600,6488 3619,6493 3629,6495 3648,6500 3658,6502 3667,6504 3687,6509 3696,6511 3716,6516 3726,6518 3735,6520 3745,6523 3755,6525 3764,6527 3784,6532 3793,6534 3813,6539 3823,6541 3832,6543 3852,6547 3861,6549 3881,6553 3890,6555 3910,6560 3920,6562 3929,6564 3949,6569 3958,6571 3968,6573 3978,6575 3987,6577 4007,6582 4017,6584 4026,6586 4046,6590 4055,6592 4075,6597 4084,6599 4094,6601 4114,6605 4123,6607 4143,6612 4152,6614 4172,6618 4181,6620 4191,6622 4210,6626 4220,6628 4240,6633 4249,6635 4259,6637 4278,6641 4288,6643 4307,6647 4317,6649 4337,6653 4346,6655 4356,6657 4375,6661 4385,6663 4404,6667 4414,6669 4424,6671 4443,6675 4453,6677 4463,6679 4472,6681 4482,6683 4501,6687 4511,6689 4521,6691 4531,6693 4540,6695 4550,6697 4569,6701 4579,6703 4589,6705 4598,6707 4608,6709 4618,6711 4637,6715 4647,6716 4666,6720 4676,6722 4686,6724 4705,6728 4715,6730 4734,6734 4744,6735 4763,6739 4773,6741 4783,6743 4802,6747 4812,6749 4831,6752 4841,6754 4851,6756 4870,6760 4880,6762 4899,6765 4909,6767 4928,6771 4938,6773 4948,6774 4967,6778 4977,6780 4996,6783 5006,6785 5015,6787 5035,6791 5045,6792 5064,6796 5074,6798 5083,6799 5093,6801 5103,6803 5112,6805 5132,6808 5142,6810 5151,6812 5161,6814 5171,6815 5180,6817 5200,6820 5209,6822 5229,6826 5238,6827 5258,6831 5268,6833 5277,6834 5297,6838 5306,6839 5326,6843 5335,6844 5355,6848 5365,6850 5374,6851 5384,6853 5394,6855 5403,6856 5423,6860 5432,6861 5442,6863 5452,6864 5462,6866 5471,6868 5491,6871 5500,6873 5520,6876 5529,6878 5539,6879 5559,6882 5568,6884 5588,6887 5597,6889 5607,6891 5617,6892 5626,6894 5636,6895 5656,6899 5665,6900 5685,6903 5694,6905 5704,6906 5723,6910 5733,6911 5752,6914 5762,6916 5772,6917 5782,6919 5791,6921 5801,6922 5820,6925 5830,6927 5849,6930 5859,6931 5869,6933 5888,6936 5898,6937 5917,6940 5927,6942 5946,6945 5956,6946 5966,6948 5985,6951 5995,6952 6014,6955 6024,6957 6034,6958 6053,6961 6063,6963 6082,6966 6092,6967 6111,6970 6121,6972 6131,6973 6150,6976 6160,6977 6179,6980 6189,6982 6199,6983 6208,6985 6218,6986 6228,6988 6247,6990 6257,6992 6276,6995 6286,6996 6296,6997 6315,7000 6325,7002 6344,7005 6354,7006 6363,7007 6383,7010 6393,7011 6412,7014 6422,7016 6441,7018 6451,7020 6460,7021 6480,7024 6490,7025 6509,7028 6519,7029 6528,7031 6548,7033 6557,7035 6577,7037 6587,7039 6606,7041 6616,7043 6625,7044 6645,7047 6654,7048 6674,7051 6684,7052 6703,7055 6713,7056 6722,7057 6742,7060 6751,7061 6771,7064 6780,7065 6790,7066 6810,7069 6819,7070 6839,7073 6848,7074 6868,7076 6877,7078 6887,7079 6907,7081 6916,7083 6936,7085 6945,7086 6955,7088 6974,7090 6984,7091 7004,7094 7013,7095 7033,7098 7042,7099 7052,7100 7071,7103 7081,7104 7101,7106 7110,7107 7120,7109 7139,7111 7149,7112 7168,7115 7178,7116 7188,7117 7198,7118 7207,7119 7217,7121 7236,7123 7246,7124 7265,7126 7275,7128 7295,7130 7304,7131 7314,7132 7333,7135 7343,7136 7362,7138 7372,7139 7382,7140 7401,7143 7411,7144 7430,7146 7440,7147 7459,7150 7469,7151 7479,7152 7498,7154 7508,7155 7527,7157 7537,7159 7547,7160 7566,7162 7576,7163 7595,7165 7605,7166 7624,7169 7634,7170 7644,7171 7663,7173 7673,7174 7692,7176 7702,7177 7712,7178 7731,7181 7741,7182 7760,7184 7770,7185 7789,7187 7799,7188 7809,7189 7828,7191 7838,7192 7857,7194 7867,7195 7876,7197 7886,7198 7896,7199 7905,7200 7925,7202 7935,7203 7954,7205 7964,7206 7973,7207 7993,7209 8002,7210 8022,7212 8032,7213 8051,7215 8061,7216 8070,7217 8090,7219 8099,7220 8119,7222 8129,7223 8138,7224 8158,7226 8167,7227 8187,7229 8196,7230 8216,7232 8226,7233 8235,7234 8255,7236 8264,7237 8284,7239 8293,7240 8303,7241 8323,7243 8332,7244 8352,7246 8361,7247 8381,7249 8390,7250 8400,7250 8419,7252 8429,7253 8449,7255 8458,7256 8468,7257 8487,7259 8497,7260 8516,7262 8526,7263 8546,7265 8555,7265 8565,7266 8584,7268 8594,7269 8613,7271 8623,7272 8643,7274 8652,7275 8662,7276 8672,7276 8681,7277 8691,7278 8710,7280 8720,7281 8730,7282 8749,7284 8759,7284 8778,7286 8788,7287 8807,7289 8817,7290 8827,7291 8846,7292 8856,7293 8875,7295 8885,7296 8895,7297 8914,7299 8924,7299 8943,7301 8953,7302 8963,7303 8972,7304 8982,7305 8992,7305 9011,7307 9021,7308 9040,7310 9050,7310 9060,7311 9079,7313 9089,7314 9108,7315 9118,7316 9137,7318 9147,7319 9157,7320 9176,7321 9186,7322 9205,7324 9215,7325 9234,7326 9244,7327 9254,7328 9273,7329 9283,7330 9302,7332 9312,7333 9321,7333 9341,7335 9351,7336 9370,7337 9380,7338 9399,7340 9409,7341 9418,7341 9438,7343 9447,7344 9467,7345 9477,7346 9486,7347 9506,7348 9515,7349 9535,7351 9544,7351 9564,7353 9574,7354 9583,7354 9603,7356 9612,7357 9632,7358 9640,7359 9650,7360 9670,7361 9679,7362 9699,7364 9708,7364 9728,7366 9737,7367 9747,7367 9767,7369 9776,7369 9796,7371 9805,7372 9825,7373 9834,7374 9844,7375 9864,7376 9873,7377 9893,7378 9902,7379 9912,7380 9931,7381 9941,7382 9951,7382 9960,7383 9970,7384 9990,7385 9999,7386 10009,7387 10028,7388 10038,7389 10057,7390 10067,7391 10077,7392 10096,7393 10106,7394 10125,7395 10135,7396 10154,7397 10164,7398 10174,7398 10193,7400 10203,7401 10222,7402 10232,7403 10242,7403 10261,7405 10271,7405 10290,7407 10300,7407 10319,7409 10329,7409 10339,7410 10358,7411 10368,7412 10387,7413 10397,7414 10407,7414 10426,7416 10436,7416 10455,7418 10465,7418 10484,7420 10494,7420 10504,7421 10523,7422 10533,7423 10552,7424 10562,7425 10581,7426 10591,7427 10601,7427 10620,7429 10630,7429 10649,7430 10659,7431 10668,7432 10688,7433 10698,7434 10717,7435 10727,7435 10746,7437 10756,7437 10765,7438 10785,7439 10795,7440 10814,7441 10824,7441 10833,7442 10853,7443 10862,7444 10882,7445 10892,7446 10911,7447 10921,7447 10930,7448 10940,7449 10950,7449 10959,7450 10979,7451 10988,7452 10998,7452 11018,7453 11027,7454 11047,7455 11056,7456 11076,7457 11085,7457 11095,7458 11115,7459 11124,7460 11144,7461 11153,7461 11163,7462 11173,7463 11182,7463 11192,7464 11212,7465 11221,7465 11241,7466 11250,7467 11260,7468 11279,7469 11289,7469 11309,7470 11318,7471 11338,7472 11347,7473 11357,7473 11376,7474 11386,7475 11396,7475 11406,7476 11415,7476 11425,7477 11444,7478 11454,7478 11473,7480 11483,7480 11502,7481 11512,7482 11522,7482 11541,7483 11551,7484 11570,7485 11580,7485 11590,7486 11609,7487 11619,7487 11638,7489 11648,7489 11667,7490 11677,7491 11687,7491 11706,7492 11716,7493 11735,7494 11745,7494 11764,7495 11774,7496 11784,7496 11803,7497 11813,7498 11832,7499 11842,7499 11852,7500 11871,7501 11881,7501 11890,7502 11900,7502 11910,7503 11929,7504 11939,7504 11949,7505 11968,7506 11978,7506 11997,7507 12007,7508 12017,7508 12036,7509 12046,7509 12065,7510 12075,7511 12094,7512 12104,7512 12113,7513 12133,7514 12143,7514 12162,7515 12172,7516 12181,7516 12201,7517 12210,7517 12230,7518 12240,7519 12259,7520 12269,7520 12278,7521 12298,7522 12307,7522 12327,7523 12337,7523 12346,7524 12366,7525 12375,7525 12395,7526 12404,7527 12424,7528 12434,7528 12443,7528 12463,7529 12472,7530 12492,7531 12501,7531 12521,7532 12531,7532 12540,7533 12560,7534 12569,7534 12589,7535 12598,7535 12608,7536 12627,7537 12637,7537 12657,7538 12666,7538 12686,7539 12695,7540 12705,7540 12724,7541 12734,7541 12754,7542 12763,7543 12773,7543 12792,7544 12802,7544 12821,7545 12831,7546 12851,7546 12860,7547 12870,7547 12889,7548 12899,7548 12918,7549 12928,7550 12938,7550 12957,7551 12967,7551 12986,7552 12996,7553 13015,7553 13025,7554 13035,7554 13054,7555 13064,7555 13083,7556 13093,7557 13112,7557 13122,7558 13132,7558 13151,7559 13161,7559 13180,7560 13190,7560 13200,7561 13219,7562 13229,7562 13248,7563 13258,7563 13277,7564 13287,7564 13297,7565 13316,7565 13326,7566 13345,7567 13355,7567 13365,7567 13384,7568 13394,7568 13413,7569 13423,7570 13442,7570 13452,7571 13462,7571 13481,7572 13491,7572 13510,7573 13520,7573 13529,7574 13549,7574 13559,7575 13578,7575 13588,7576 13607,7576 13617,7577 13626,7577 13646,7578 13655,7578 13675,7579 13685,7579 13704,7580 13714,7580 13723,7581 13743,7581 13752,7582 13772,7582 13782,7583 13791,7583 13811,7584 13820,7584 13840,7585 13849,7585 13869,7586 13879,7586 13888,7587 13908,7587 13917,7588 13937,7588 13946,7589 13956,7589 13976,7590 13985,7590 14005,7591 14014,7591 14034,7592 14043,7592 14053,7592 14073,7593 14082,7593 14102,7594 14111,7594 14121,7595 14140,7595 14150,7596 14169,7596 14179,7596 14199,7597 14208,7597 14218,7598 14237,7598 14247,7599 14266,7599 14276,7600 14286,7600 14305,7601 14315,7601 14334,7602 14344,7602 14363,7602 14373,7603 14383,7603 14402,7604 14412,7604 14431,7605 14441,7605 14460,7606 14470,7606 14480,7606 14499,7607 14509,7607 14528,7608 14538,7608 14548,7608 14567,7609 14577,7609 14596,7610 14606,7610 14625,7611 14635,7611 14645,7611 14664,7612 14674,7612 14693,7613 14703,7613 14713,7613 14732,7614 14742,7614 14761,7615 14771,7615 14790,7616 14800,7616 14810,7616 14829,7617 14839,7617 14858,7618 14868,7618 14877,7618 14897,7619 14907,7619 14926,7620 14936,7620 14955,7620 14965,7621 14974,7621 14994,7622 15004,7622 15023,7622 15033,7623 15052,7623 15062,7623 15071,7624 15091,7624 15101,7625 15120,7625 15130,7625 15139,7626 15159,7626 15168,7626 15188,7627 15197,7627 15217,7628 15227,7628 15236,7628 15256,7629 15265,7629 15285,7630 15294,7630 15304,7630 15324,7631 15333,7631 15353,7631 15362,7632 15382,7632 15391,7632 15401,7633 15421,7633 15430,7633 15450,7634 15459,7634 15469,7634 15488,7635 15498,7635 15518,7636 15527,7636 15547,7636 15556,7637 15566,7637 15585,7637 15595,7638 15615,7638 15624,7638 15644,7639 15653,7639 15663,7639 15682,7640 15692,7640 15711,7641 15721,7641 15731,7641 15750,7642 15760,7642 15779,7642 15789,7643 15808,7643 15818,7643 15828,7644 15847,7644 15857,7644 15876,7645 15886,7645 15896,7645 15915,7646 15925,7646 15944,7646 15954,7647 15973,7647 15983,7647 15993,7647 16002,7648 16012,7648 16022,7648 16041,7649 16051,7649 16061,7649 16080,7650 16090,7650 16109,7650 16119,7650 16138,7651 16148,7651 16158,7651 16177,7652 16187,7652 16206,7652 16216,7653 16225,7653"/>
 <path fill="none" stroke="rgb(255,66,14)" stroke-width="80" stroke-linejoin="round" d="M 2057,6914 L 2077,6917 2087,6919 2106,6922 2116,6923 2135,6926 2145,6928 2154,6929 2164,6931 2174,6933 2184,6934 2203,6937 2213,6939 2232,6942 2242,6943 2251,6945 2271,6948 2281,6949 2300,6952 2310,6954 2319,6955 2339,6958 2348,6960 2368,6963 2378,6964 2397,6967 2407,6968 2416,6970 2426,6971 2436,6973 2445,6974 2465,6977 2475,6979 2484,6980 2504,6983 2513,6984 2533,6987 2542,6989 2562,6992 2572,6993 2581,6994 2601,6997 2610,6999 2630,7001 2639,7003 2649,7004 2668,7007 2678,7008 2698,7011 2707,7013 2727,7015 2736,7017 2746,7018 2765,7021 2775,7022 2795,7025 2804,7026 2824,7029 2833,7030 2843,7032 2862,7034 2872,7036 2882,7037 2892,7038 2901,7040 2911,7041 2930,7044 2940,7045 2959,7048 2969,7049 2979,7050 2989,7052 2998,7053 3008,7054 3027,7057 3037,7058 3056,7061 3066,7062 3076,7063 3086,7065 3095,7066 3105,7067 3124,7070 3134,7071 3153,7074 3163,7075 3173,7076 3182,7077 3192,7079 3202,7080 3221,7082 3231,7084 3241,7085 3260,7087 3270,7089 3289,7091 3299,7092 3318,7095 3328,7096 3338,7097 3357,7100 3367,7101 3386,7104 3396,7105 3415,7107 3425,7108 3435,7110 3454,7112 3464,7113 3483,7116 3493,7117 3503,7118 3522,7120 3532,7122 3551,7124 3561,7125 3580,7127 3590,7129 3600,7130 3609,7131 3619,7132 3629,7133 3648,7136 3658,7137 3667,7138 3687,7140 3696,7141 3716,7144 3726,7145 3745,7147 3755,7148 3764,7149 3784,7152 3793,7153 3813,7155 3823,7156 3832,7157 3852,7159 3861,7161 3881,7163 3890,7164 3910,7166 3920,7167 3929,7168 3949,7171 3958,7172 3978,7174 3987,7175 4007,7177 4017,7178 4026,7179 4046,7181 4055,7182 4065,7184 4075,7185 4084,7186 4094,7187 4114,7189 4123,7190 4143,7192 4152,7193 4172,7195 4181,7196 4191,7197 4210,7199 4220,7200 4240,7203 4249,7204 4259,7205 4278,7207 4288,7208 4307,7210 4317,7211 4337,7213 4346,7214 4356,7215 4375,7217 4385,7218 4404,7220 4414,7221 4424,7222 4434,7223 4443,7224 4453,7225 4472,7227 4482,7228 4501,7230 4511,7231 4521,7232 4540,7234 4550,7235 4569,7237 4579,7238 4589,7239 4608,7241 4618,7242 4637,7244 4647,7245 4666,7246 4676,7247 4686,7248 4705,7250 4715,7251 4734,7253 4744,7254 4763,7256 4773,7257 4783,7258 4802,7260 4812,7261 4831,7262 4841,7263 4851,7264 4870,7266 4880,7267 4899,7269 4909,7270 4928,7272 4938,7273 4948,7274 4967,7275 4977,7276 4996,7278 5006,7279 5015,7280 5035,7282 5045,7283 5064,7284 5074,7285 5093,7287 5103,7288 5112,7289 5122,7290 5132,7290 5142,7291 5161,7293 5171,7294 5180,7295 5200,7297 5209,7297 5229,7299 5238,7300 5258,7302 5268,7303 5277,7303 5297,7305 5306,7306 5326,7308 5335,7309 5355,7310 5365,7311 5374,7312 5394,7314 5403,7314 5423,7316 5432,7317 5442,7318 5462,7319 5471,7320 5491,7322 5500,7323 5520,7324 5529,7325 5539,7326 5559,7328 5568,7328 5578,7329 5588,7330 5597,7331 5607,7332 5626,7333 5636,7334 5656,7336 5665,7336 5685,7338 5694,7339 5704,7340 5723,7341 5733,7342 5743,7343 5752,7344 5762,7344 5772,7345 5791,7347 5801,7347 5820,7349 5830,7350 5849,7351 5859,7352 5869,7353 5888,7354 5898,7355 5908,7356 5917,7357 5927,7357 5946,7359 5956,7360 5966,7360 5985,7362 5995,7363 6014,7364 6024,7365 6034,7366 6053,7367 6063,7368 6082,7369 6092,7370 6111,7372 6121,7372 6131,7373 6150,7374 6160,7375 6179,7377 6189,7377 6199,7378 6218,7379 6228,7380 6247,7382 6257,7382 6276,7384 6286,7384 6296,7385 6315,7387 6325,7387 6344,7389 6354,7389 6363,7390 6383,7391 6393,7392 6412,7394 6422,7394 6441,7396 6451,7396 6460,7397 6480,7398 6490,7399 6509,7400 6519,7401 6528,7402 6548,7403 6557,7404 6577,7405 6587,7406 6606,7407 6616,7408 6625,7408 6635,7409 6645,7410 6654,7410 6674,7412 6684,7412 6703,7414 6713,7414 6722,7415 6742,7416 6751,7417 6771,7418 6780,7419 6790,7420 6810,7421 6819,7421 6829,7422 6839,7423 6848,7423 6868,7425 6877,7425 6887,7426 6907,7427 6916,7428 6936,7429 6945,7430 6955,7430 6974,7432 6984,7432 7004,7433 7013,7434 7033,7435 7042,7436 7052,7436 7071,7438 7081,7438 7101,7440 7110,7440 7120,7441 7139,7442 7149,7443 7168,7444 7178,7444 7198,7446 7207,7446 7217,7447 7236,7448 7246,7449 7265,7450 7275,7450 7295,7451 7304,7452 7314,7453 7333,7454 7343,7454 7362,7456 7372,7456 7382,7457 7401,7458 7411,7458 7430,7460 7440,7460 7459,7461 7469,7462 7479,7462 7498,7464 7508,7464 7527,7465 7537,7466 7547,7466 7566,7467 7576,7468 7595,7469 7605,7470 7624,7471 7634,7471 7644,7472 7663,7473 7673,7474 7692,7475 7702,7475 7712,7476 7731,7477 7741,7477 7760,7478 7770,7479 7789,7480 7799,7481 7809,7481 7828,7482 7838,7483 7857,7484 7867,7484 7886,7485 7896,7486 7905,7486 7925,7487 7935,7488 7944,7488 7954,7489 7964,7489 7973,7490 7993,7491 8002,7491 8022,7493 8032,7493 8051,7494 8061,7495 8070,7495 8090,7496 8099,7497 8119,7498 8129,7498 8138,7499 8158,7500 8167,7500 8187,7501 8196,7502 8216,7503 8226,7503 8235,7504 8255,7505 8264,7505 8284,7506 8293,7506 8303,7507 8323,7508 8332,7508 8352,7509 8361,7510 8381,7511 8390,7511 8400,7512 8419,7513 8429,7513 8449,7514 8458,7515 8468,7515 8487,7516 8497,7516 8516,7517 8526,7518 8546,7519 8555,7519 8565,7520 8584,7521 8594,7521 8613,7522 8623,7522 8643,7523 8652,7524 8662,7524 8681,7525 8691,7526 8710,7527 8720,7527 8730,7527 8749,7528 8759,7529 8778,7530 8788,7530 8807,7531 8817,7531 8827,7532 8846,7533 8856,7533 8875,7534 8885,7534 8895,7535 8914,7536 8924,7536 8943,7537 8953,7538 8972,7538 8982,7539 8992,7539 9011,7540 9021,7540 9040,7541 9050,7542 9060,7542 9079,7543 9089,7543 9108,7544 9118,7545 9137,7546 9147,7546 9157,7546 9176,7547 9186,7548 9205,7548 9215,7549 9234,7550 9244,7550 9254,7550 9273,7551 9283,7552 9302,7552 9312,7553 9321,7553 9341,7554 9351,7554 9360,7555 9370,7555 9380,7556 9399,7556 9409,7557 9418,7557 9438,7558 9447,7558 9467,7559 9477,7560 9486,7560 9506,7561 9515,7561 9535,7562 9544,7562 9564,7563 9574,7563 9583,7564 9603,7565 9612,7565 9632,7566 9640,7566 9650,7566 9670,7567 9679,7568 9689,7568 9699,7568 9708,7569 9728,7569 9737,7570 9747,7570 9767,7571 9776,7571 9796,7572 9805,7572 9825,7573 9834,7573 9844,7574 9864,7575 9873,7575 9893,7576 9902,7576 9912,7576 9931,7577 9941,7577 9960,7578 9970,7579 9990,7579 9999,7580 10009,7580 10028,7581 10038,7581 10048,7581 10057,7582 10067,7582 10077,7582 10096,7583 10106,7583 10125,7584 10135,7584 10154,7585 10164,7585 10174,7586 10193,7586 10203,7587 10222,7588 10232,7588 10242,7588 10261,7589 10271,7589 10290,7590 10300,7590 10319,7591 10329,7591 10339,7592 10358,7592 10368,7593 10387,7593 10397,7593 10407,7594 10426,7594 10436,7595 10455,7595 10465,7596 10484,7596 10494,7597 10504,7597 10523,7598 10533,7598 10552,7599 10562,7599 10581,7600 10591,7600 10601,7600 10620,7601 10630,7601 10649,7602 10659,7602 10668,7602 10688,7603 10698,7603 10717,7604 10727,7604 10746,7605 10756,7605 10765,7606 10785,7606 10795,7606 10814,7607 10824,7607 10833,7608 10843,7608 10853,7608 10862,7609 10882,7609 10892,7609 10911,7610 10921,7610 10930,7611 10950,7611 10959,7612 10979,7612 10988,7612 10998,7613 11018,7613 11027,7614 11047,7614 11056,7614 11076,7615 11085,7615 11095,7616 11115,7616 11124,7616 11144,7617 11153,7617 11173,7618 11182,7618 11192,7618 11212,7619 11221,7619 11241,7620 11250,7620 11260,7620 11279,7621 11289,7621 11309,7622 11318,7622 11338,7623 11347,7623 11357,7623 11376,7624 11386,7624 11406,7625 11415,7625 11425,7625 11444,7626 11454,7626 11473,7626 11483,7627 11502,7627 11512,7627 11522,7628 11541,7628 11551,7629 11570,7629 11580,7629 11590,7630 11609,7630 11619,7630 11638,7631 11648,7631 11667,7632 11677,7632 11687,7632 11706,7633 11716,7633 11735,7633 11745,7634 11764,7634 11774,7634 11784,7635 11803,7635 11813,7635 11832,7636 11842,7636 11852,7636 11871,7637 11881,7637 11900,7638 11910,7638 11929,7638 11939,7639 11949,7639 11968,7639 11978,7640 11997,7640 12007,7640 12017,7641 12036,7641 12046,7641 12065,7642 12075,7642 12094,7643 12104,7643 12113,7643 12133,7643 12143,7644 12162,7644 12172,7644 12181,7645 12201,7645 12210,7645 12230,7646 12240,7646 12259,7647 12269,7647 12278,7647 12298,7647 12307,7648 12327,7648 12337,7648 12346,7649 12366,7649 12375,7649 12395,7650 12404,7650 12424,7650 12434,7651 12443,7651 12463,7651 12472,7651 12492,7652 12501,7652 12521,7653 12531,7653 12540,7653 12560,7653 12569,7654 12589,7654 12598,7654 12608,7655 12627,7655 12637,7655 12657,7656 12666,7656 12686,7656 12695,7656 12705,7657 12724,7657 12734,7657 12754,7658 12763,7658 12773,7658 12792,7659 12802,7659 12821,7659 12831,7659 12851,7660 12860,7660 12870,7660 12889,7661 12899,7661 12918,7661 12928,7661 12938,7662 12957,7662 12967,7662 12986,7663 12996,7663 13015,7663 13025,7664 13035,7664 13054,7664 13064,7664 13083,7665 13093,7665 13112,7665 13122,7665 13132,7666 13151,7666 13161,7666 13180,7667 13190,7667 13200,7667 13219,7667 13229,7668 13248,7668 13258,7668 13277,7669 13287,7669 13297,7669 13316,7669 13326,7670 13345,7670 13355,7670 13365,7670 13384,7671 13394,7671 13413,7671 13423,7671 13442,7672 13452,7672 13462,7672 13481,7673 13491,7673 13510,7673 13520,7673 13529,7673 13549,7674 13559,7674 13568,7674 13578,7674 13588,7675 13607,7675 13617,7675 13626,7675 13646,7676 13655,7676 13675,7676 13685,7676 13704,7677 13714,7677 13723,7677 13743,7677 13752,7678 13772,7678 13782,7678 13791,7678 13811,7679 13820,7679 13840,7679 13849,7679 13869,7680 13879,7680 13888,7680 13908,7680 13917,7680 13937,7681 13946,7681 13956,7681 13976,7681 13985,7682 14005,7682 14014,7682 14034,7682 14043,7683 14053,7683 14073,7683 14082,7683 14102,7684 14111,7684 14121,7684 14140,7684 14150,7684 14169,7685 14179,7685 14199,7685 14208,7685 14218,7686 14237,7686 14247,7686 14266,7686 14276,7686 14286,7687 14305,7687 14315,7687 14334,7687 14344,7688 14363,7688 14373,7688 14383,7688 14402,7689 14412,7689 14431,7689 14441,7689 14460,7689 14470,7690 14480,7690 14499,7690 14509,7690 14528,7691 14538,7691 14548,7691 14567,7691 14577,7691 14596,7692 14606,7692 14625,7692 14635,7692 14645,7692 14664,7693 14674,7693 14693,7693 14703,7693 14713,7693 14732,7694 14742,7694 14761,7694 14771,7694 14790,7694 14800,7695 14810,7695 14829,7695 14839,7695 14858,7695 14868,7696 14877,7696 14897,7696 14907,7696 14926,7696 14936,7697 14955,7697 14965,7697 14974,7697 14994,7697 15004,7698 15023,7698 15033,7698 15052,7698 15062,7698 15071,7699 15091,7699 15101,7699 15120,7699 15130,7699 15139,7699 15159,7700 15168,7700 15188,7700 15197,7700 15217,7701 15227,7701 15236,7701 15256,7701 15265,7701 15285,7701 15294,7702 15304,7702 15324,7702 15333,7702 15353,7702 15362,7703 15382,7703 15391,7703 15401,7703 15421,7703 15430,7703 15450,7704 15459,7704 15469,7704 15488,7704 15498,7704 15518,7705 15527,7705 15547,7705 15556,7705 15566,7705 15585,7705 15595,7706 15615,7706 15624,7706 15644,7706 15653,7706 15663,7706 15682,7707 15692,7707 15711,7707 15721,7707 15731,7707 15750,7707 15760,7708 15779,7708 15789,7708 15808,7708 15818,7708 15828,7708 15847,7709 15857,7709 15876,7709 15886,7709 15896,7709 15915,7709 15925,7710 15944,7710 15954,7710 15973,7710 15983,7710 15993,7710 16012,7711 16022,7711 16041,7711 16051,7711 16061,7711 16080,7711 16090,7712 16109,7712 16119,7712 16138,7712 16148,7712 16158,7712 16177,7713 16187,7713 16206,7713 16216,7713 16225,7713"/>
 <path fill="none" stroke="rgb(0,69,134)" stroke-width="80" stroke-linejoin="round" d="M 2057,8030 L 2077,8029 2087,8028 2106,8027 2116,8027 2135,8026 2145,8025 2154,8025 2174,8024 2184,8024 2203,8023 2213,8022 2232,8021 2242,8021 2251,8020 2271,8019 2281,8019 2300,8018 2310,8018 2319,8017 2339,8016 2348,8016 2368,8015 2378,8015 2397,8014 2407,8013 2416,8013 2436,8012 2445,8012 2465,8011 2475,8010 2484,8010 2504,8009 2513,8009 2533,8008 2542,8007 2562,8006 2572,8006 2581,8006 2601,8005 2610,8004 2630,8003 2639,8003 2649,8003 2668,8002 2678,8001 2698,8001 2707,8000 2727,7999 2736,7999 2746,7999 2765,7998 2775,7997 2795,7996 2804,7996 2824,7995 2833,7995 2843,7994 2862,7994 2872,7993 2892,7992 2901,7992 2911,7992 2930,7991 2940,7990 2959,7990 2969,7989 2989,7989 2998,7988 3008,7988 3027,7987 3037,7987 3056,7986 3066,7985 3076,7985 3095,7984 3105,7984 3124,7983 3134,7983 3153,7982 3163,7982 3173,7981 3192,7980 3202,7980 3221,7979 3231,7979 3241,7979 3260,7978 3270,7977 3289,7977 3299,7976 3318,7976 3328,7975 3338,7975 3357,7974 3367,7974 3386,7973 3396,7973 3415,7972 3425,7972 3435,7971 3454,7971 3464,7970 3483,7969 3493,7969 3503,7969 3522,7968 3532,7968 3551,7967 3561,7967 3580,7966 3590,7966 3600,7965 3619,7965 3629,7964 3648,7964 3658,7963 3667,7963 3687,7962 3696,7962 3716,7961 3726,7961 3745,7960 3755,7960 3764,7959 3784,7959 3793,7958 3813,7958 3823,7957 3832,7957 3852,7956 3861,7956 3881,7955 3890,7955 3910,7954 3920,7954 3929,7954 3949,7953 3958,7953 3978,7952 3987,7952 4007,7951 4017,7951 4026,7950 4046,7950 4055,7950 4075,7949 4084,7949 4094,7948 4114,7948 4123,7947 4143,7947 4152,7946 4172,7946 4181,7945 4191,7945 4210,7944 4220,7944 4240,7944 4249,7943 4259,7943 4278,7942 4288,7942 4307,7941 4317,7941 4337,7940 4346,7940 4356,7940 4375,7939 4385,7939 4404,7938 4414,7938 4424,7938 4443,7937 4453,7937 4472,7936 4482,7936 4501,7935 4511,7935 4521,7935 4540,7934 4550,7934 4569,7933 4579,7933 4589,7933 4608,7932 4618,7932 4637,7931 4647,7931 4666,7930 4676,7930 4686,7930 4705,7929 4715,7929 4734,7928 4744,7928 4763,7928 4773,7927 4783,7927 4802,7927 4812,7926 4821,7926 4831,7926 4841,7925 4851,7925 4870,7925 4880,7924 4899,7924 4909,7923 4928,7923 4938,7923 4948,7922 4967,7922 4977,7922 4996,7921 5006,7921 5015,7921 5035,7920 5045,7920 5064,7919 5074,7919 5093,7918 5103,7918 5112,7918 5132,7917 5142,7917 5161,7917 5171,7916 5180,7916 5200,7916 5209,7915 5229,7915 5238,7915 5258,7914 5268,7914 5277,7913 5297,7913 5306,7913 5326,7912 5335,7912 5355,7911 5365,7911 5374,7911 5394,7910 5403,7910 5423,7910 5432,7909 5442,7909 5462,7909 5471,7908 5491,7908 5500,7908 5520,7907 5529,7907 5539,7907 5559,7906 5568,7906 5588,7906 5597,7905 5607,7905 5626,7905 5636,7904 5656,7904 5665,7904 5685,7903 5694,7903 5704,7903 5723,7902 5733,7902 5752,7902 5762,7901 5772,7901 5791,7901 5801,7900 5820,7900 5830,7900 5849,7899 5859,7899 5869,7899 5888,7898 5898,7898 5917,7898 5927,7897 5946,7897 5956,7897 5966,7897 5985,7896 5995,7896 6014,7895 6024,7895 6034,7895 6053,7895 6063,7894 6082,7894 6092,7894 6111,7893 6121,7893 6131,7893 6150,7892 6160,7892 6179,7892 6189,7891 6199,7891 6218,7891 6228,7891 6247,7890 6257,7890 6276,7890 6286,7889 6296,7889 6315,7889 6325,7889 6344,7888 6354,7888 6363,7888 6383,7887 6393,7887 6412,7887 6422,7886 6431,7886 6441,7886 6451,7886 6460,7886 6480,7885 6490,7885 6509,7885 6519,7884 6528,7884 6548,7884 6557,7884 6577,7883 6587,7883 6606,7883 6616,7882 6625,7882 6645,7882 6654,7882 6674,7881 6684,7881 6703,7881 6713,7880 6722,7880 6742,7880 6751,7880 6771,7879 6780,7879 6790,7879 6810,7879 6819,7878 6839,7878 6848,7878 6868,7877 6877,7877 6887,7877 6907,7877 6916,7876 6936,7876 6945,7876 6955,7876 6974,7875 6984,7875 7004,7875 7013,7875 7033,7874 7042,7874 7052,7874 7071,7873 7081,7873 7091,7873 7101,7873 7110,7873 7120,7873 7139,7872 7149,7872 7168,7872 7178,7871 7198,7871 7207,7871 7217,7871 7236,7870 7246,7870 7265,7870 7275,7870 7295,7869 7304,7869 7314,7869 7333,7869 7343,7869 7362,7868 7372,7868 7382,7868 7401,7867 7411,7867 7430,7867 7440,7867 7459,7866 7469,7866 7479,7866 7498,7866 7508,7866 7527,7865 7537,7865 7547,7865 7566,7865 7576,7864 7595,7864 7605,7864 7624,7864 7634,7863 7644,7863 7663,7863 7673,7863 7692,7862 7702,7862 7712,7862 7731,7862 7741,7862 7760,7861 7770,7861 7789,7861 7799,7861 7809,7861 7828,7860 7838,7860 7857,7860 7867,7860 7886,7859 7896,7859 7905,7859 7925,7859 7935,7859 7954,7858 7964,7858 7973,7858 7993,7858 8002,7857 8022,7857 8032,7857 8051,7857 8061,7857 8070,7856 8090,7856 8099,7856 8119,7856 8129,7855 8138,7855 8158,7855 8167,7855 8187,7855 8196,7854 8216,7854 8226,7854 8235,7854 8255,7854 8264,7853 8284,7853 8293,7853 8303,7853 8323,7853 8332,7852 8352,7852 8361,7852 8381,7852 8390,7852 8400,7851 8419,7851 8429,7851 8449,7851 8458,7851 8468,7850 8487,7850 8497,7850 8516,7850 8526,7850 8546,7849 8555,7849 8565,7849 8584,7849 8594,7849 8613,7848 8623,7848 8643,7848 8652,7848 8662,7848 8681,7847 8691,7847 8710,7847 8720,7847 8730,7847 8749,7846 8759,7846 8778,7846 8788,7846 8807,7846 8817,7846 8827,7845 8846,7845 8856,7845 8875,7845 8885,7845 8895,7845 8914,7844 8924,7844 8943,7844 8953,7844 8972,7843 8982,7843 8992,7843 9011,7843 9021,7843 9040,7843 9050,7842 9060,7842 9079,7842 9089,7842 9108,7842 9118,7842 9137,7841 9147,7841 9157,7841 9176,7841 9186,7841 9205,7840 9215,7840 9234,7840 9244,7840 9254,7840 9273,7840 9283,7840 9302,7839 9312,7839 9321,7839 9341,7839 9351,7839 9370,7838 9380,7838 9399,7838 9409,7838 9418,7838 9438,7838 9447,7838 9467,7837 9477,7837 9486,7837 9506,7837 9515,7837 9535,7836 9544,7836 9564,7836 9574,7836 9583,7836 9603,7836 9612,7836 9632,7835 9640,7835 9650,7835 9670,7835 9679,7835 9699,7835 9708,7834 9728,7834 9737,7834 9747,7834 9767,7834 9776,7834 9796,7833 9805,7833 9815,7833 9825,7833 9834,7833 9844,7833 9864,7833 9873,7833 9893,7832 9902,7832 9912,7832 9931,7832 9941,7832 9960,7832 9970,7832 9990,7831 9999,7831 10009,7831 10028,7831 10038,7831 10057,7831 10067,7830 10077,7830 10096,7830 10106,7830 10125,7830 10135,7830 10154,7830 10164,7829 10174,7829 10193,7829 10203,7829 10222,7829 10232,7829 10242,7829 10261,7828 10271,7828 10290,7828 10300,7828 10319,7828 10329,7828 10339,7828 10358,7827 10368,7827 10387,7827 10397,7827 10407,7827 10426,7827 10436,7827 10455,7826 10465,7826 10484,7826 10494,7826 10504,7826 10523,7826 10533,7826 10552,7826 10562,7825 10581,7825 10591,7825 10601,7825 10620,7825 10630,7825 10649,7825 10659,7824 10668,7824 10688,7824 10698,7824 10717,7824 10727,7824 10746,7824 10756,7824 10765,7823 10785,7823 10795,7823 10814,7823 10824,7823 10833,7823 10853,7823 10862,7823 10882,7822 10892,7822 10911,7822 10921,7822 10930,7822 10950,7822 10959,7822 10979,7822 10988,7821 10998,7821 11018,7821 11027,7821 11047,7821 11056,7821 11076,7821 11085,7821 11095,7820 11115,7820 11124,7820 11144,7820 11153,7820 11173,7820 11182,7820 11192,7820 11212,7819 11221,7819 11241,7819 11250,7819 11260,7819 11279,7819 11289,7819 11309,7819 11318,7819 11338,7818 11347,7818 11357,7818 11376,7818 11386,7818 11406,7818 11415,7818 11425,7818 11444,7818 11454,7817 11473,7817 11483,7817 11502,7817 11512,7817 11522,7817 11541,7817 11551,7817 11570,7816 11580,7816 11590,7816 11609,7816 11619,7816 11638,7816 11648,7816 11667,7816 11677,7816 11687,7816 11706,7815 11716,7815 11735,7815 11745,7815 11764,7815 11774,7815 11784,7815 11803,7815 11813,7815 11832,7814 11842,7814 11852,7814 11871,7814 11881,7814 11900,7814 11910,7814 11929,7814 11939,7814 11949,7814 11968,7813 11978,7813 11997,7813 12007,7813 12017,7813 12036,7813 12046,7813 12065,7813 12075,7813 12094,7812 12104,7812 12113,7812 12133,7812 12143,7812 12162,7812 12172,7812 12181,7812 12201,7812 12210,7812 12230,7811 12240,7811 12259,7811 12269,7811 12278,7811 12298,7811 12307,7811 12327,7811 12337,7811 12346,7811 12366,7811 12375,7810 12395,7810 12404,7810 12424,7810 12434,7810 12443,7810 12463,7810 12472,7810 12492,7810 12501,7810 12521,7809 12531,7809 12540,7809 12560,7809 12569,7809 12589,7809 12598,7809 12608,7809 12627,7809 12637,7809 12657,7809 12666,7808 12686,7808 12695,7808 12705,7808 12724,7808 12734,7808 12754,7808 12763,7808 12773,7808 12792,7808 12802,7808 12821,7807 12831,7807 12851,7807 12860,7807 12870,7807 12889,7807 12899,7807 12918,7807 12928,7807 12938,7807 12957,7807 12967,7807 12986,7806 12996,7806 13015,7806 13025,7806 13035,7806 13054,7806 13064,7806 13083,7806 13093,7806 13112,7806 13122,7806 13132,7806 13151,7805 13161,7805 13180,7805 13190,7805 13200,7805 13219,7805 13229,7805 13248,7805 13258,7805 13277,7805 13287,7805 13297,7805 13316,7804 13326,7804 13345,7804 13355,7804 13365,7804 13384,7804 13394,7804 13413,7804 13423,7804 13442,7804 13452,7804 13462,7804 13481,7804 13491,7803 13510,7803 13520,7803 13529,7803 13549,7803 13559,7803 13578,7803 13588,7803 13607,7803 13617,7803 13626,7803 13646,7803 13655,7803 13675,7802 13685,7802 13704,7802 13714,7802 13723,7802 13743,7802 13752,7802 13772,7802 13782,7802 13791,7802 13811,7802 13820,7802 13840,7802 13849,7802 13869,7801 13879,7801 13888,7801 13908,7801 13917,7801 13937,7801 13946,7801 13956,7801 13976,7801 13985,7801 14005,7801 14014,7801 14034,7801 14043,7801 14053,7800 14073,7800 14082,7800 14102,7800 14111,7800 14121,7800 14140,7800 14150,7800 14169,7800 14179,7800 14199,7800 14208,7800 14218,7800 14237,7800 14247,7799 14266,7799 14276,7799 14286,7799 14305,7799 14315,7799 14334,7799 14344,7799 14363,7799 14373,7799 14383,7799 14402,7799 14412,7799 14431,7799 14441,7799 14460,7798 14470,7798 14480,7798 14499,7798 14509,7798 14528,7798 14538,7798 14548,7798 14567,7798 14577,7798 14596,7798 14606,7798 14625,7798 14635,7798 14645,7798 14664,7798 14674,7797 14693,7797 14703,7797 14713,7797 14732,7797 14742,7797 14761,7797 14771,7797 14790,7797 14800,7797 14810,7797 14829,7797 14839,7797 14858,7797 14868,7797 14877,7797 14897,7797 14907,7796 14926,7796 14936,7796 14955,7796 14965,7796 14974,7796 14994,7796 15004,7796 15023,7796 15033,7796 15052,7796 15062,7796 15071,7796 15091,7796 15101,7796 15120,7796 15130,7796 15139,7795 15159,7795 15168,7795 15188,7795 15197,7795 15217,7795 15227,7795 15236,7795 15256,7795 15265,7795 15285,7795 15294,7795 15304,7795 15324,7795 15333,7795 15353,7795 15362,7795 15382,7795 15391,7794 15401,7794 15421,7794 15430,7794 15450,7794 15459,7794 15469,7794 15488,7794 15498,7794 15518,7794 15527,7794 15547,7794 15556,7794 15566,7794 15585,7794 15595,7794 15615,7794 15624,7794 15644,7793 15653,7793 15663,7793 15682,7793 15692,7793 15711,7793 15721,7793 15731,7793 15750,7793 15760,7793 15779,7793 15789,7793 15808,7793 15818,7793 15828,7793 15847,7793 15857,7793 15876,7793 15886,7793 15896,7793 15915,7792 15925,7792 15944,7792 15954,7792 15973,7792 15983,7792 15993,7792 16012,7792 16022,7792 16041,7792 16051,7792 16061,7792 16080,7792 16090,7792 16109,7792 16119,7792 16138,7792 16148,7792 16158,7792 16177,7792 16187,7792 16206,7791 16216,7791 16225,7791"/>
 <text class="SVGTextShape"><tspan class="TextParagraph" font-family="Liberation Sans, sans-serif" font-size="353px" font-weight="400"><tspan class="TextPosition" x="1395" y="11773"><tspan fill="rgb(0,0,0)" stroke="none">01/01/22</tspan></tspan></tspan></text>
 <text class="SVGTextShape"><tspan class="TextParagraph" font-family="Liberation Sans, sans-serif" font-size="353px" font-weight="400"><tspan class="TextPosition" x="3335" y="11773"><tspan fill="rgb(0,0,0)" stroke="none">07/20/22</tspan></tspan></tspan></text>
 <text class="SVGTextShape"><tspan class="TextParagraph" font-family="Liberation Sans, sans-serif" font-size="353px" font-weight="400"><tspan class="TextPosition" x="5275" y="11773"><tspan fill="rgb(0,0,0)" stroke="none">02/05/23</tspan></tspan></tspan></text>
 <text class="SVGTextShape"><tspan class="TextParagraph" font-family="Liberation Sans, sans-serif" font-size="353px" font-weight="400"><tspan class="TextPosition" x="7214" y="11773"><tspan fill="rgb(0,0,0)" stroke="none">08/24/23</tspan></tspan></tspan></text>
 <text class="SVGTextShape"><tspan class="TextParagraph" font-family="Liberation Sans, sans-serif" font-size="353px" font-weight="400"><tspan class="TextPosition" x="9154" y="11773"><tspan fill="rgb(0,0,0)" stroke="none">03/11/24</tspan></tspan></tspan></text>
 <text class="SVGTextShape"><tspan class="TextParagraph" font-family="Liberation Sans, sans-serif" font-size="353px" font-weight="400"><tspan class="TextPosition" x="11094" y="11773"><tspan fill="rgb(0,0,0)" stroke="none">09/27/24</tspan></tspan></tspan></text>
 <text class="SVGTextShape"><tspan class="TextParagraph" font-family="Liberation Sans, sans-serif" font-size="353px" font-weight="400"><tspan class="TextPosition" x="13033" y="11773"><tspan fill="rgb(0,0,0)" stroke="none">04/15/25</tspan></tspan></tspan></text>
 <text class="SVGTextShape"><tspan class="TextParagraph" font-family="Liberation Sans, sans-serif" font-size="353px" font-weight="400"><tspan class="TextPosition" x="14973" y="11773"><tspan fill="rgb(0,0,0)" stroke="none">11/01/25</tspan></tspan></tspan></text>
 <text class="SVGTextShape"><tspan class="TextParagraph" font-family="Liberation Sans, sans-serif" font-size="353px" font-weight="400"><tspan class="TextPosition" x="1622" y="11326"><tspan fill="rgb(0,0,0)" stroke="none">0</tspan></tspan></tspan></text>
 <text class="SVGTextShape"><tspan class="TextParagraph" font-family="Liberation Sans, sans-serif" font-size="353px" font-weight="400"><tspan class="TextPosition" x="1437" y="10367"><tspan fill="rgb(0,0,0)" stroke="none">20</tspan></tspan></tspan></text>
 <text class="SVGTextShape"><tspan class="TextParagraph" font-family="Liberation Sans, sans-serif" font-size="353px" font-weight="400"><tspan class="TextPosition" x="1437" y="9408"><tspan fill="rgb(0,0,0)" stroke="none">40</tspan></tspan></tspan></text>
 <text class="SVGTextShape"><tspan class="TextParagraph" font-family="Liberation Sans, sans-serif" font-size="353px" font-weight="400"><tspan class="TextPosition" x="1437" y="8450"><tspan fill="rgb(0,0,0)" stroke="none">60</tspan></tspan></tspan></text>
 <text class="SVGTextShape"><tspan class="TextParagraph" font-family="Liberation Sans, sans-serif" font-size="353px" font-weight="400"><tspan class="TextPosition" x="1437" y="7491"><tspan fill="rgb(0,0,0)" stroke="none">80</tspan></tspan></tspan></text>
 <text class="SVGTextShape"><tspan class="TextParagraph" font-family="Liberation Sans, sans-serif" font-size="353px" font-weight="400"><tspan class="TextPosition" x="1251" y="6533"><tspan fill="rgb(0,0,0)" stroke="none">100</tspan></tspan></tspan></text>
 <text class="SVGTextShape"><tspan class="TextParagraph" font-family="Liberation Sans, sans-serif" font-size="353px" font-weight="400"><tspan class="TextPosition" x="1251" y="5574"><tspan fill="rgb(0,0,0)" stroke="none">120</tspan></tspan></tspan></text>
 <text class="SVGTextShape"><tspan class="TextParagraph" font-family="Liberation Sans, sans-serif" font-size="353px" font-weight="400"><tspan class="TextPosition" x="1251" y="4616"><tspan fill="rgb(0,0,0)" stroke="none">140</tspan></tspan></tspan></text>
 <text class="SVGTextShape"><tspan class="TextParagraph" font-family="Liberation Sans, sans-serif" font-size="353px" font-weight="400"><tspan class="TextPosition" x="1251" y="3657"><tspan fill="rgb(0,0,0)" stroke="none">160</tspan></tspan></tspan></text>
 <text class="SVGTextShape"><tspan class="TextParagraph" font-family="Liberation Sans, sans-serif" font-size="353px" font-weight="400"><tspan class="TextPosition" x="1251" y="2699"><tspan fill="rgb(0,0,0)" stroke="none">180</tspan></tspan></tspan></text>
 <text class="SVGTextShape"><tspan class="TextParagraph" font-family="Liberation Sans, sans-serif" font-size="459px" font-weight="400"><tspan class="TextPosition" x="8261" y="932"><tspan fill="rgb(0,0,0)" stroke="none">Weight / Time</tspan></tspan></tspan></text>
 <text class="SVGTextShape"><tspan class="TextParagraph" font-family="Liberation Sans, sans-serif" font-size="388px" font-weight="400"><tspan class="TextPosition" x="3869" y="1923"><tspan fill="rgb(0,0,0)" stroke="none">for a tall, minimally active male aged 28 eating ~2469 calories a day</tspan></tspan></tspan></text>
 <path fill="none" stroke="rgb(0,69,134)" stroke-width="80" stroke-linejoin="round" d="M 16935,5551 L 17735,5551"/>
 <path fill="none" stroke="rgb(255,66,14)" stroke-width="80" stroke-linejoin="round" d="M 16935,6049 L 17735,6049"/>
 <path fill="none" stroke="rgb(255,211,32)" stroke-width="80" stroke-linejoin="round" d="M 16935,6547 L 17735,6547"/>
 <path fill="none" stroke="rgb(87,157,28)" stroke-width="80" stroke-linejoin="round" d="M 16935,7044 L 17735,7044"/>
 <path fill="none" stroke="rgb(126,0,33)" stroke-width="80" stroke-linejoin="round" d="M 16935,7542 L 17735,7542"/>
 <text class="SVGTextShape"><tspan class="TextParagraph" font-family="Liberation Sans, sans-serif" font-size="353px" font-weight="400"><tspan class="TextPosition" x="17835" y="5671"><tspan fill="rgb(0,0,0)" stroke="none">BMI 18</tspan></tspan></tspan></text>
 <text class="SVGTextShape"><tspan class="TextParagraph" font-family="Liberation Sans, sans-serif" font-size="353px" font-weight="400"><tspan class="TextPosition" x="17835" y="6169"><tspan fill="rgb(0,0,0)" stroke="none">BMI 25</tspan></tspan></tspan></text>
 <text class="SVGTextShape"><tspan class="TextParagraph" font-family="Liberation Sans, sans-serif" font-size="353px" font-weight="400"><tspan class="TextPosition" x="17835" y="6666"><tspan fill="rgb(0,0,0)" stroke="none">BMI 30</tspan></tspan></tspan></text>
 <text class="SVGTextShape"><tspan class="TextParagraph" font-family="Liberation Sans, sans-serif" font-size="353px" font-weight="400"><tspan class="TextPosition" x="17835" y="7164"><tspan fill="rgb(0,0,0)" stroke="none">BMI 35</tspan></tspan></tspan></text>
 <text class="SVGTextShape"><tspan class="TextParagraph" font-family="Liberation Sans, sans-serif" font-size="353px" font-weight="400"><tspan class="TextPosition" x="17835" y="7662"><tspan fill="rgb(0,0,0)" stroke="none">BMI 45</tspan></tspan></tspan></text>
 <text class="SVGTextShape"><tspan class="TextParagraph" font-family="Liberation Sans, sans-serif" font-size="318px" font-weight="400"><tspan class="TextPosition" x="8571" y="12501"><tspan fill="rgb(0,0,0)" stroke="none">Date</tspan></tspan></tspan></text>
 <text class="SVGTextShape" transform="rotate(-90 837 7936)"><tspan class="TextParagraph" font-family="Liberation Sans, sans-serif" font-size="318px" font-weight="400"><tspan class="TextPosition" x="837" y="7936"><tspan fill="rgb(0,0,0)" stroke="none">Weight (kg)</tspan></tspan></tspan></text>
</svg>